<svg width="153" height="85" viewBox="0 0 153 85" fill="none" xmlns="http://www.w3.org/2000/svg">
<g clip-path="url(#clip0_29_209)">
<path d="M20.384 33.344V33.984C19.9787 34.0693 19.5413 34.3147 19.072 34.72C18.624 35.1253 18.2187 35.808 17.856 36.768L10.336 56.16C10.2933 56.16 10.2507 56.16 10.208 56.16C10.1653 56.16 10.1227 56.16 10.08 56.16C10.0373 56.16 9.99467 56.16 9.952 56.16C9.90933 56.16 9.86667 56.16 9.824 56.16L2.016 36.032C1.696 35.2213 1.33333 34.688 0.928 34.432C0.522667 34.1547 0.149333 34.0053 -0.192 33.984V33.344C0.234667 33.3653 0.757333 33.3867 1.376 33.408C2.016 33.4293 2.63467 33.44 3.232 33.44C4.064 33.44 4.84267 33.4293 5.568 33.408C6.29333 33.3867 6.88 33.3653 7.328 33.344V33.984C6.60267 34.0053 6.048 34.0907 5.664 34.24C5.30133 34.3893 5.09867 34.656 5.056 35.04C5.03467 35.4027 5.16267 35.9467 5.44 36.672L11.392 52.448L10.88 52.992L16.448 38.528C16.896 37.376 17.1093 36.48 17.088 35.84C17.0667 35.1787 16.8213 34.7093 16.352 34.432C15.8827 34.1547 15.2 34.0053 14.304 33.984V33.344C14.9227 33.3653 15.552 33.3867 16.192 33.408C16.832 33.4293 17.4293 33.44 17.984 33.44C18.5387 33.44 18.9973 33.4293 19.36 33.408C19.7227 33.3867 20.064 33.3653 20.384 33.344ZM29.6603 33.344V33.984C28.9349 34.0053 28.3803 34.0907 27.9963 34.24C27.6336 34.368 27.3883 34.624 27.2603 35.008C27.1323 35.3707 27.0683 35.9467 27.0683 36.736V52.608C27.0683 53.376 27.1323 53.952 27.2603 54.336C27.3883 54.72 27.6336 54.976 27.9963 55.104C28.3803 55.232 28.9349 55.3173 29.6603 55.36V56C29.1696 55.9573 28.5509 55.936 27.8043 55.936C27.0789 55.9147 26.3429 55.904 25.5963 55.904C24.7643 55.904 23.9856 55.9147 23.2603 55.936C22.5349 55.936 21.9483 55.9573 21.5003 56V55.36C22.2256 55.3173 22.7696 55.232 23.1323 55.104C23.5163 54.976 23.7723 54.72 23.9003 54.336C24.0283 53.952 24.0923 53.376 24.0923 52.608V36.736C24.0923 35.9467 24.0283 35.3707 23.9003 35.008C23.7723 34.624 23.5163 34.368 23.1323 34.24C22.7696 34.0907 22.2256 34.0053 21.5003 33.984V33.344C21.9483 33.3653 22.5349 33.3867 23.2603 33.408C23.9856 33.4293 24.7643 33.44 25.5963 33.44C26.3429 33.44 27.0789 33.4293 27.8043 33.408C28.5509 33.3867 29.1696 33.3653 29.6603 33.344ZM32.344 33.344C32.792 33.3653 33.3787 33.3867 34.104 33.408C34.8293 33.4293 35.544 33.44 36.248 33.44C37.2507 33.44 38.2107 33.4293 39.128 33.408C40.0453 33.3867 40.696 33.376 41.08 33.376C43.6613 33.376 45.592 33.9627 46.872 35.136C48.152 36.3093 48.792 37.824 48.792 39.68C48.792 40.448 48.664 41.2587 48.408 42.112C48.152 42.944 47.704 43.7227 47.064 44.448C46.4453 45.152 45.592 45.728 44.504 46.176C43.416 46.624 42.04 46.848 40.376 46.848H37.304V46.208H40.056C41.5707 46.208 42.7227 45.92 43.512 45.344C44.3227 44.768 44.8667 44.0107 45.144 43.072C45.4427 42.1333 45.592 41.12 45.592 40.032C45.592 38.0053 45.1867 36.4907 44.376 35.488C43.5867 34.4853 42.2213 33.984 40.28 33.984C39.2987 33.984 38.6587 34.1653 38.36 34.528C38.0613 34.8907 37.912 35.6267 37.912 36.736V52.608C37.912 53.376 37.9867 53.952 38.136 54.336C38.3067 54.72 38.6267 54.976 39.096 55.104C39.5653 55.232 40.248 55.3173 41.144 55.36V56C40.5893 55.9573 39.8853 55.936 39.032 55.936C38.1787 55.9147 37.3147 55.904 36.44 55.904C35.608 55.904 34.8293 55.9147 34.104 55.936C33.3787 55.936 32.792 55.9573 32.344 56V55.36C33.0693 55.3173 33.6133 55.232 33.976 55.104C34.36 54.976 34.616 54.72 34.744 54.336C34.872 53.952 34.936 53.376 34.936 52.608V36.736C34.936 35.9467 34.872 35.3707 34.744 35.008C34.616 34.624 34.36 34.368 33.976 34.24C33.6133 34.0907 33.0693 34.0053 32.344 33.984V33.344Z" fill="white"/>
<path d="M61.872 32.896C63.28 32.896 64.432 33.1093 65.328 33.536C66.2453 33.9413 67.056 34.4213 67.76 34.976C68.1867 35.296 68.5067 35.3387 68.72 35.104C68.9547 34.848 69.1147 34.2613 69.2 33.344H69.936C69.8933 34.1333 69.8613 35.0933 69.84 36.224C69.8187 37.3547 69.808 38.848 69.808 40.704H69.072C68.9227 39.7867 68.784 39.0613 68.656 38.528C68.528 37.9733 68.368 37.504 68.176 37.12C68.0053 36.736 67.7707 36.352 67.472 35.968C66.8107 35.0933 65.9787 34.464 64.976 34.08C63.9733 33.6747 62.9173 33.472 61.808 33.472C60.7627 33.472 59.8133 33.7387 58.96 34.272C58.128 34.784 57.4027 35.5307 56.784 36.512C56.1867 37.4933 55.7173 38.6773 55.376 40.064C55.056 41.4507 54.896 43.008 54.896 44.736C54.896 46.528 55.0773 48.1173 55.44 49.504C55.8027 50.8693 56.304 52.0213 56.944 52.96C57.6053 53.8987 58.3733 54.6133 59.248 55.104C60.144 55.5733 61.104 55.808 62.128 55.808C63.088 55.808 64.0907 55.616 65.136 55.232C66.1813 54.848 67.0027 54.2293 67.6 53.376C68.0693 52.7573 68.3893 52.0853 68.56 51.36C68.752 50.6347 68.9227 49.6213 69.072 48.32H69.808C69.808 50.2613 69.8187 51.8293 69.84 53.024C69.8613 54.1973 69.8933 55.1893 69.936 56H69.2C69.1147 55.0827 68.9653 54.5067 68.752 54.272C68.56 54.0373 68.2293 54.0693 67.76 54.368C66.9707 54.9227 66.128 55.4133 65.232 55.84C64.3573 56.2453 63.2267 56.448 61.84 56.448C59.8133 56.448 58.032 55.9893 56.496 55.072C54.9813 54.1547 53.7973 52.832 52.944 51.104C52.112 49.376 51.696 47.296 51.696 44.864C51.696 42.4747 52.1333 40.384 53.008 38.592C53.8827 36.8 55.0773 35.4027 56.592 34.4C58.128 33.3973 59.888 32.896 61.872 32.896ZM77.5033 56.224C76.6286 56.224 75.8713 56.064 75.2313 55.744C74.5913 55.4027 74.1006 54.9333 73.7593 54.336C73.4393 53.7387 73.2793 53.0453 73.2793 52.256C73.2793 51.3173 73.4926 50.5493 73.9193 49.952C74.3673 49.3547 74.9326 48.8747 75.6153 48.512C76.2979 48.1493 77.0126 47.8507 77.7593 47.616C78.5273 47.36 79.2526 47.1253 79.9353 46.912C80.6179 46.6773 81.1726 46.4107 81.5993 46.112C82.0473 45.8133 82.2713 45.4187 82.2713 44.928V42.944C82.2713 42.048 82.1326 41.3653 81.8553 40.896C81.5993 40.4267 81.2473 40.1173 80.7993 39.968C80.3513 39.7973 79.8499 39.712 79.2953 39.712C78.7619 39.712 78.1859 39.7867 77.5673 39.936C76.9699 40.0853 76.4899 40.3947 76.1273 40.864C76.5326 40.9493 76.8846 41.1627 77.1833 41.504C77.4819 41.8453 77.6313 42.2827 77.6313 42.816C77.6313 43.3493 77.4606 43.776 77.1193 44.096C76.7779 44.3947 76.3406 44.544 75.8073 44.544C75.1886 44.544 74.7299 44.352 74.4313 43.968C74.1539 43.5627 74.0153 43.1147 74.0153 42.624C74.0153 42.0693 74.1539 41.6213 74.4313 41.28C74.7086 40.9387 75.0606 40.6187 75.4873 40.32C75.9779 39.9787 76.6073 39.6907 77.3753 39.456C78.1646 39.2 79.0499 39.072 80.0312 39.072C80.9059 39.072 81.6526 39.1787 82.2713 39.392C82.8899 39.584 83.4019 39.872 83.8073 40.256C84.3619 40.768 84.7246 41.3973 84.8953 42.144C85.0659 42.8693 85.1513 43.744 85.1513 44.768V53.664C85.1513 54.1973 85.2259 54.5813 85.3753 54.816C85.5459 55.0507 85.8019 55.168 86.1433 55.168C86.3779 55.168 86.6019 55.1147 86.8153 55.008C87.0286 54.9013 87.2846 54.7307 87.5833 54.496L87.9353 55.04C87.4873 55.3813 87.0606 55.6693 86.6553 55.904C86.2499 56.1173 85.7059 56.224 85.0233 56.224C84.4046 56.224 83.8926 56.1173 83.4873 55.904C83.0819 55.6907 82.7726 55.3813 82.5593 54.976C82.3673 54.5493 82.2713 54.016 82.2713 53.376C81.6953 54.336 81.0019 55.0507 80.1913 55.52C79.4019 55.9893 78.5059 56.224 77.5033 56.224ZM78.6553 54.944C79.3593 54.944 80.0099 54.7413 80.6073 54.336C81.2259 53.9307 81.7806 53.3227 82.2713 52.512V46.24C82.0153 46.6027 81.6419 46.912 81.1513 47.168C80.6606 47.4027 80.1273 47.648 79.5513 47.904C78.9753 48.1387 78.4206 48.4267 77.8873 48.768C77.3753 49.088 76.9486 49.5147 76.6073 50.048C76.2659 50.5813 76.0953 51.2747 76.0953 52.128C76.0953 52.9813 76.3193 53.664 76.7673 54.176C77.2366 54.688 77.8659 54.944 78.6553 54.944ZM93.9848 39.168V58.816C93.9848 59.7333 94.2514 60.3413 94.7848 60.64C95.3394 60.96 96.0968 61.12 97.0568 61.12V61.792C96.5874 61.7707 95.9368 61.7387 95.1048 61.696C94.2728 61.6747 93.3874 61.664 92.4488 61.664C91.7874 61.664 91.1261 61.6747 90.4648 61.696C89.8248 61.7387 89.3341 61.7707 88.9928 61.792V61.12C89.7608 61.12 90.3048 60.9813 90.6248 60.704C90.9448 60.4267 91.1048 59.904 91.1048 59.136V43.008C91.1048 42.048 90.9341 41.344 90.5928 40.896C90.2514 40.4267 89.6114 40.192 88.6728 40.192V39.52C89.3554 39.584 90.0168 39.616 90.6568 39.616C91.2754 39.616 91.8621 39.584 92.4168 39.52C92.9928 39.4347 93.5154 39.3173 93.9848 39.168ZM99.1048 39.072C100.235 39.072 101.249 39.3813 102.145 40C103.041 40.5973 103.745 41.4827 104.257 42.656C104.79 43.8293 105.057 45.28 105.057 47.008C105.057 48.16 104.918 49.3013 104.641 50.432C104.363 51.5413 103.926 52.5547 103.329 53.472C102.753 54.368 101.995 55.0933 101.057 55.648C100.139 56.1813 99.0301 56.448 97.7288 56.448C96.7261 56.448 95.8514 56.2133 95.1048 55.744C94.3794 55.2747 93.8888 54.7093 93.6328 54.048L93.9528 53.6C94.2514 54.1973 94.6781 54.6987 95.2328 55.104C95.8088 55.5093 96.5234 55.712 97.3767 55.712C98.5714 55.712 99.4994 55.3387 100.161 54.592C100.822 53.8453 101.281 52.8533 101.537 51.616C101.814 50.3573 101.953 48.9707 101.953 47.456C101.953 45.7493 101.814 44.352 101.537 43.264C101.259 42.176 100.843 41.3653 100.289 40.832C99.7341 40.2987 99.0514 40.032 98.2408 40.032C97.1954 40.032 96.2461 40.4693 95.3928 41.344C94.5394 42.1973 93.9954 43.4987 93.7608 45.248L93.3768 44.8C93.6114 42.9867 94.2514 41.5787 95.2968 40.576C96.3634 39.5733 97.6328 39.072 99.1048 39.072ZM111.139 31.52C111.693 31.52 112.173 31.7227 112.579 32.128C112.984 32.5333 113.187 33.0133 113.187 33.568C113.187 34.1227 112.984 34.6027 112.579 35.008C112.173 35.4133 111.693 35.616 111.139 35.616C110.584 35.616 110.104 35.4133 109.699 35.008C109.293 34.6027 109.091 34.1227 109.091 33.568C109.091 33.0133 109.293 32.5333 109.699 32.128C110.104 31.7227 110.584 31.52 111.139 31.52ZM112.803 39.168V53.024C112.803 53.92 112.984 54.528 113.347 54.848C113.731 55.168 114.36 55.328 115.235 55.328V56C114.872 55.9787 114.317 55.9573 113.571 55.936C112.845 55.8933 112.109 55.872 111.363 55.872C110.637 55.872 109.901 55.8933 109.155 55.936C108.408 55.9573 107.853 55.9787 107.491 56V55.328C108.365 55.328 108.984 55.168 109.347 54.848C109.731 54.528 109.923 53.92 109.923 53.024V43.008C109.923 42.048 109.752 41.344 109.411 40.896C109.069 40.4267 108.429 40.192 107.491 40.192V39.52C108.173 39.584 108.835 39.616 109.475 39.616C110.093 39.616 110.68 39.584 111.235 39.52C111.811 39.4347 112.333 39.3173 112.803 39.168ZM122.018 34.208V39.552H126.754V40.192H122.018V52.576C122.018 53.5787 122.199 54.2827 122.562 54.688C122.924 55.0933 123.426 55.296 124.066 55.296C124.706 55.296 125.26 55.04 125.73 54.528C126.199 53.9947 126.604 53.1093 126.946 51.872L127.586 52.032C127.372 53.2693 126.946 54.3147 126.306 55.168C125.687 56.0213 124.727 56.448 123.426 56.448C122.7 56.448 122.103 56.352 121.634 56.16C121.164 55.9893 120.748 55.7333 120.386 55.392C119.916 54.9013 119.586 54.3147 119.394 53.632C119.223 52.9493 119.138 52.0427 119.138 50.912V40.192H116.066V39.552H119.138V34.656C119.671 34.6347 120.183 34.592 120.674 34.528C121.164 34.464 121.612 34.3573 122.018 34.208ZM132.722 56.224C131.847 56.224 131.09 56.064 130.45 55.744C129.81 55.4027 129.319 54.9333 128.978 54.336C128.658 53.7387 128.498 53.0453 128.498 52.256C128.498 51.3173 128.711 50.5493 129.138 49.952C129.586 49.3547 130.151 48.8747 130.834 48.512C131.517 48.1493 132.231 47.8507 132.978 47.616C133.746 47.36 134.471 47.1253 135.154 46.912C135.837 46.6773 136.391 46.4107 136.818 46.112C137.266 45.8133 137.49 45.4187 137.49 44.928V42.944C137.49 42.048 137.351 41.3653 137.074 40.896C136.818 40.4267 136.466 40.1173 136.018 39.968C135.57 39.7973 135.069 39.712 134.514 39.712C133.981 39.712 133.405 39.7867 132.786 39.936C132.189 40.0853 131.709 40.3947 131.346 40.864C131.751 40.9493 132.103 41.1627 132.402 41.504C132.701 41.8453 132.85 42.2827 132.85 42.816C132.85 43.3493 132.679 43.776 132.338 44.096C131.997 44.3947 131.559 44.544 131.026 44.544C130.407 44.544 129.949 44.352 129.65 43.968C129.373 43.5627 129.234 43.1147 129.234 42.624C129.234 42.0693 129.373 41.6213 129.65 41.28C129.927 40.9387 130.279 40.6187 130.706 40.32C131.197 39.9787 131.826 39.6907 132.594 39.456C133.383 39.2 134.269 39.072 135.25 39.072C136.125 39.072 136.871 39.1787 137.49 39.392C138.109 39.584 138.621 39.872 139.026 40.256C139.581 40.768 139.943 41.3973 140.114 42.144C140.285 42.8693 140.37 43.744 140.37 44.768V53.664C140.37 54.1973 140.445 54.5813 140.594 54.816C140.765 55.0507 141.021 55.168 141.362 55.168C141.597 55.168 141.821 55.1147 142.034 55.008C142.247 54.9013 142.503 54.7307 142.802 54.496L143.154 55.04C142.706 55.3813 142.279 55.6693 141.874 55.904C141.469 56.1173 140.925 56.224 140.242 56.224C139.623 56.224 139.111 56.1173 138.706 55.904C138.301 55.6907 137.991 55.3813 137.778 54.976C137.586 54.5493 137.49 54.016 137.49 53.376C136.914 54.336 136.221 55.0507 135.41 55.52C134.621 55.9893 133.725 56.224 132.722 56.224ZM133.874 54.944C134.578 54.944 135.229 54.7413 135.826 54.336C136.445 53.9307 136.999 53.3227 137.49 52.512V46.24C137.234 46.6027 136.861 46.912 136.37 47.168C135.879 47.4027 135.346 47.648 134.77 47.904C134.194 48.1387 133.639 48.4267 133.106 48.768C132.594 49.088 132.167 49.5147 131.826 50.048C131.485 50.5813 131.314 51.2747 131.314 52.128C131.314 52.9813 131.538 53.664 131.986 54.176C132.455 54.688 133.085 54.944 133.874 54.944ZM149.204 30.912V53.024C149.204 53.92 149.385 54.528 149.748 54.848C150.132 55.168 150.761 55.328 151.635 55.328V56C151.273 55.9787 150.718 55.9573 149.972 55.936C149.246 55.8933 148.51 55.872 147.764 55.872C147.038 55.872 146.302 55.8933 145.556 55.936C144.809 55.9573 144.254 55.9787 143.892 56V55.328C144.766 55.328 145.385 55.168 145.748 54.848C146.132 54.528 146.324 53.92 146.324 53.024V34.752C146.324 33.792 146.153 33.088 145.812 32.64C145.47 32.1707 144.83 31.936 143.892 31.936V31.264C144.574 31.328 145.236 31.36 145.876 31.36C146.494 31.36 147.081 31.328 147.636 31.264C148.212 31.1787 148.734 31.0613 149.204 30.912Z" fill="white"/>
</g>
<defs>
<clipPath id="clip0_29_209">
<rect width="153" height="85" fill="white"/>
</clipPath>
</defs>
</svg>
