<svg width="1034" height="643" viewBox="0 0 1034 643" fill="none" xmlns="http://www.w3.org/2000/svg">
<path d="M887.601 389.39L884.805 399.892L869.643 405.01L865.105 399.687L862.902 400.292L867.017 416.166L873.176 416.856L881.393 419.965V423.075L885.156 422.385L890.638 414.799V408.592L893.724 402.385L897.149 403.075L893.034 394.448L892.405 388.894L887.601 389.39Z" fill="white"/>
<path d="M973.616 418.296L973.168 447.867L977.428 447.637L983.031 441.091L987.738 441.321L990.763 444.031L991.768 452.38L1001.4 457.462L1003.87 456.554V453.505L996.136 447.068L992.324 438.26L995.35 436.796L993.111 431.944L988.634 431.835L987.508 426.644L975.637 418.635L973.616 418.296Z" fill="white"/>
<path d="M108.054 269.643L113.899 288.046L111.176 289.57L111.478 293.225L116.621 297.181V304.501L122.974 310.599L120.252 292.62L116.621 280.726L117.529 272.498L120.554 272.801L121.764 275.547L120.554 282.553L136.286 313.334V324.308L148.992 339.239L162.908 345.639L168.656 342.288L176.825 348.991L181.665 344.115L179.548 338.621L186.506 336.492L188.623 337.714L190.741 335.584H194.069L200.12 324.913L197.094 322.166L185.296 324.913L182.573 332.838L175.615 334.06L167.446 330.708L163.816 319.129L166.563 304.525L160.948 301.029L158.274 287.005L156.035 286.05L151.945 290.2L147.249 287.695L145.41 278.342L126.811 276.394L117.202 269.171L108.054 269.643Z" fill="#EE6C4D"/>
<path d="M568.238 170.706L561.461 170.464L557.165 173.089L557.105 175.037L559.888 177.663L568.541 179.127L568.238 170.706Z" fill="white"/>
<path d="M515.126 272.135L510.189 270.477L489.641 274.337L485.163 277.737L487.898 291.857L479.73 292.184L474.817 300.085L463.115 302.892L463.151 308.639L501.694 338.101L508.265 338.657L530.18 321.537L527.99 318.778L523.875 318.222L521.406 314.084V296.963L519.761 295.305L520.039 290.889L515.658 286.473L515.114 281.778L517.026 280.399L516.203 275.426L515.126 272.135Z" fill="white"/>
<path d="M484.159 277.93H470.182L467.447 284.004L461.142 287.041L455.939 301.125L445.798 307.199L431.555 330.66L445.532 330.381L446.076 323.485H449.634V314.096H461.965L462.244 301.948L474.03 299.189L478.968 291.179L486.64 290.901L484.159 277.93Z" fill="white"/>
<path d="M431.652 331.628L434.29 335.076L433.745 349.983L437.581 347.224L440.316 346.667L444.152 348.047L448.533 354.121L452.647 351.362L472.651 351.084L467.713 317.677L473.014 317.653L463.139 310.091L463.151 315.003L450.651 315.015L450.59 324.392L446.996 324.38L446.536 331.301L431.652 331.628Z" fill="white"/>
<path d="M437.969 348.155L433.201 351.616L432.112 353.552L431.773 355.488L433.528 356.746L439.384 356.661L443.148 355.645L443.571 357.496L443.233 359.94L446.827 361.707L447.577 362.554L452.345 362.723L452.514 360.618L448.158 355.391L443.305 348.821L440.292 347.562L437.969 348.155Z" fill="white"/>
<path d="M434.06 357.859L433.903 359.202L442.277 359.081L442.7 357.835L442.519 356.576L440.111 357.556L434.06 357.859Z" fill="white"/>
<path d="M433.939 360.134L435.44 363.775L436.275 361.525L446.452 362.59L442.047 360.327L433.939 360.134Z" fill="white"/>
<path d="M436.129 365.349L437.823 368.7L442.579 364.611L442.627 363.352L437.025 362.542L436.129 365.349Z" fill="white"/>
<path d="M438.332 369.475L442.01 375.137L446.803 370.975L451.716 370.757L455.806 376.19L459.279 378.477L460.586 375.936L461.747 375.282L461.663 369.692L459.351 363.062L452.26 363.848L443.487 363.147L443.438 365.397L438.332 369.475Z" fill="white"/>
<path d="M442.579 375.754L449.416 382.361L454.293 376.444L451.244 371.665L447.044 372.088L442.579 375.754Z" fill="white"/>
<path d="M450.13 383.087L463.417 391.968L463.103 385.24L459.085 380.509L455.164 377.037L450.13 383.087Z" fill="white"/>
<path d="M464.531 392.234L469.71 388.568L476.148 387.443L482.719 388.858L479.367 383.789L478.387 380.691L479.367 371.532L473.498 371.81L470.836 369.269L465.245 369.415L462.583 369.838L462.861 376.033L461.457 376.602L459.775 379.699L464.107 384.769L464.531 392.234Z" fill="white"/>
<path d="M449.271 354.834L452.998 352.281L473.715 352.16L468.923 318.839L474.393 318.681L500.858 338.875L504.416 339.383L503.073 350.612L486.434 352.124L473.594 361.707L471.259 368.265L462.34 368.64L460.065 362.094L453.228 362.578L453.494 360.436L449.271 354.834Z" fill="white"/>
<path d="M486.942 352.947L491.347 352.596L498.571 362.808L491.867 367.865L487.015 366.619L480.492 366.704L479.439 370.527L473.97 370.793L472.469 368.748L474.405 362.529L486.942 352.947Z" fill="white"/>
<path d="M499.406 362.287L502.492 362.215L505.275 358.04L509.947 357.206L514.92 360.243L525.533 360.545L533.738 357.206L536.823 354.556L537.053 351.071L542.777 345.3L544.29 332.559L540.526 324.67L530.894 322.323L508.603 339.698L505.445 339.395L504.09 351.458L492.714 352.596L499.406 362.287Z" fill="white"/>
<path d="M479.379 380.497L480.734 383.679L484.268 389.221L486.228 389.148L491.577 386.111L491.202 368.821L487.063 367.611L481.267 367.769L479.379 380.497Z" fill="white"/>
<path d="M492.545 385.579L495.788 383.679L495.716 371.156L493.61 367.744L492.255 368.882L492.545 385.579Z" fill="white"/>
<path d="M496.768 383.449H499.334L499.479 376.166L502.722 371.459L502.577 363.268L499.636 363.195L494.59 367.139L496.696 371.156L496.768 383.449Z" fill="white"/>
<path d="M500.229 383.304L504.973 383.534L510.697 389.91L513.48 390.672L515.658 389.608L518.974 389.148L520.1 384.526L524.613 381.562L529.502 381.332L538.457 364.864L538.312 361.15L534.173 357.968L525.896 361.61L514.823 361.452L509.547 358.113L505.784 358.948L503.823 362.36L503.678 371.991L500.52 376.468L500.229 383.304Z" fill="white"/>
<path d="M516.372 271.941L523.064 269.243L525.267 270.671L525.351 272.413L524.323 273.756L524.48 276.14L525.509 276.696V280.98L524.323 282.964L524.48 284.234L528.97 285.819L525.351 291.446L523.935 291.361L523.693 295.886L522.12 296.128L520.777 294.942L521.092 290.344L516.687 286.061L516.13 282.335L518.26 280.665L516.372 271.941Z" fill="white"/>
<path d="M522.592 296.987L524.48 296.672L525.037 292.317H525.981L529.841 285.977L539.365 288.747L541.966 292.789L551.333 297.072L556.209 295.015L555.737 292.958L553.608 290.901L553.85 289.473L557.311 286.545H564.16L566.762 290.03L572.268 290.828L572.982 335.463L568.891 335.306L544.181 322.456L541.506 323.969L531.354 321.428L528.594 317.786L524.577 317.229L522.532 313.587L522.592 296.987Z" fill="white"/>
<path d="M573.272 290.974L576.503 291.059L582.796 292.801L585.785 292.886L589.488 289.788H591.218L594.364 291.53H598.346L599.06 291.482L601.577 298.717L602.291 301.053L602.956 304.549L601.77 305.421L599.725 304.392L597.365 296.697L595.236 296.54L595.078 299.153L596.494 303.678L607.833 317.713L608.075 323.739L604.771 327.55L573.744 327.199L573.272 290.974Z" fill="white"/>
<path d="M538.009 355.028L538.167 351.458L543.903 345.881L545.439 332.184L541.615 324.876L544.29 323.509L570.186 337L570.029 350.236L565.467 354.12V360.944L568.456 366.728H563.18L554.443 375.367L554.213 377.98L547.763 377.896L547.678 379.081L543.999 378.597L541.482 373.842L539.595 372.911L539.837 371.459L542.208 369.644V361.15L538.929 360.642L534.972 357.702L538.009 355.028Z" fill="white"/>
<path d="M606.132 372.378L602.57 366.397L602.196 362.047L601.341 362.21L601.109 363.55L596.441 370.367L592.716 368.59L589.001 371.703L581.315 371.261L577.914 368.543L573.033 371.041L572.849 372.704L571.36 373.6L586.269 388.942L594.39 389.403L595.574 391.206L607.193 391.411L607.287 388.809L608.28 387.006L612.154 386.51L607.325 379.506H603.768L602.861 374.531L605.716 373.274L606.132 372.378Z" fill="white"/>
<path d="M609.66 324.307L605.196 328.809L573.974 328.53L574.312 336.48L571.336 336.394L571.119 350.708L566.604 354.593L566.422 360.57L569.679 366.995L573.248 369.101L573.194 369.602L578.058 367.111L581.769 370.074L588.592 370.467L592.534 367.165L596.028 368.829L599.961 363.084L600.291 361.177L603.288 360.607L603.754 366.017L606.751 371.05L614.016 355.427V345.93L619.294 339.71L609.66 324.307Z" fill="white"/>
<path d="M519.894 389.245L523.79 392.827L523.512 398.368L544.883 397.872L546.625 395.912L540.502 389.318L539.595 386.934L543.491 379.638L540.841 374.798L538.614 373.601V371.144L541.192 369.463L541.337 361.816L539.292 361.586L539.256 365.603L530.277 382.361L524.783 382.639L521.019 385.228L519.894 389.245Z" fill="white"/>
<path d="M615.36 353.455L615.057 346.329L619.85 340.739L621.144 341.731L623.504 349.62L634.831 358.053L632.774 360.582L624.484 353.455H615.36Z" fill="white"/>
<path d="M633.233 361.731L632.544 365.796L637.336 365.724L637.408 359.747L635.654 358.67L633.233 361.731Z" fill="white"/>
<path d="M606.623 374.097L615.433 354.496L624.182 354.544L631.939 361.284L631.394 366.837H637.408L638.026 370.177L647.755 375.996L653.757 376.299L642.346 388.556L626.675 393.383H622.79L615.868 387.479L613.133 386.329L607.833 378.525L604.336 378.574L603.924 374.992L606.623 374.097Z" fill="white"/>
<path d="M638.389 365.965L643.326 369.329L644.79 369.257L657.049 365.046L658.44 369.535L657.46 373.322L654.81 375.427L648.191 375.004L638.715 369.184L638.389 365.965Z" fill="white"/>
<path d="M667.286 359.444L669.864 362.324L673.349 360.219L674.608 359.795L673.01 358.247L669.949 359.154L667.286 359.444Z" fill="white"/>
<path d="M658.029 364.768L663.317 362.735L665.193 363.861L664.987 368.555L660.11 382.445L633.718 410.709L630.656 408.604L630.45 396.674L634.419 392.113L642.842 389.511L655.197 376.468L658.428 373.589L659.336 369.378L658.029 364.768Z" fill="white"/>
<path d="M541.482 388.967L547.121 395.065L549.348 392.185L552.894 392.33L553.656 389.523L557.141 387.345L564.378 392.33L568.553 388.192L584.756 388.906L569.727 373.395L571.747 372.136L572.026 369.402L568.613 367.793H563.603L555.532 375.79L555.253 379.081L548.852 378.876L548.646 380.279L544.471 379.856L540.708 387.007L541.482 388.967Z" fill="white"/>
<path d="M511.326 404.817L512.718 404.115L513.758 404.962L512.718 406.571L511.459 406.075L511.326 404.817Z" fill="white"/>
<path d="M514.122 400.401L516.215 400.05L516.917 401.381L515.876 402.506L514.836 402.361L514.122 400.401Z" fill="white"/>
<path d="M518.708 393.032L518.151 395.416L519.821 396.323L521.418 395.125L520.862 392.669L518.708 393.032Z" fill="white"/>
<path d="M530.264 399.348L530.119 402.361L523.294 402.216L519.119 410.286L528.933 421.018L531.366 418.986L531.293 416.88L529.623 416.106V414.63L533.387 412.246L536.726 414.775L540.417 414.848L540.345 402.156L534.5 401.877L534.427 399.215L530.264 399.348Z" fill="white"/>
<path d="M523.73 399.421L523.657 401.103L529.151 401.381L529.078 399.481L523.73 399.421Z" fill="white"/>
<path d="M535.843 399.215L535.771 400.97L541.555 401.115L541.761 416.13L536.472 415.985L533.411 413.601L531.039 414.932L530.93 415.598L532.152 416.191L532.503 419.276L529.236 422.083L529.938 423.559L533.556 420.752H535.299L535.855 422.434L538.154 423.414L545.536 417.171L545.391 412.609L546.928 408.895L551.659 405.386L552.93 393.516L549.566 393.528L545.669 398.864L535.843 399.215Z" fill="white"/>
<path d="M530.458 424.273L532.564 427.007L535.287 424.43L534.488 421.756L533.81 421.708L530.458 424.273Z" fill="white"/>
<path d="M533.883 427.273L546.359 427.055L548.888 430.649L548.791 433.299L549.723 434.146H555.919L557.698 430.649H560.227L561.256 431.689L564.729 431.593L565.757 443.789L571.759 443.982V444.926L587.89 452.198L588.641 453.614H592.017L591.642 448.508L585.543 445.58L585.918 441.708L588.544 435.561L594.546 435.368L589.391 418.259L589.488 410.987L597.644 398.235L597.741 396.444L596.519 395.778L596.567 392.318L595.078 392.185L593.578 390.273L568.952 389.16L564.438 393.552L557.044 388.688L554.443 390.285L552.555 406.172L547.884 409.777L546.48 412.972L546.734 417.703L538.312 424.587L536.073 423.571L536.376 424.89L533.883 427.273Z" fill="white"/>
<path d="M592.501 408.144L595.901 411.278L595.756 414.63L590.48 414.738V411.036L592.501 408.144Z" fill="white"/>
<path d="M590.553 415.779L595.72 415.67L594.377 420.195L593.07 421.333H591.472L590.335 418.272L590.553 415.779Z" fill="white"/>
<path d="M593.082 407.164L596.749 410.6L599.048 409.136L605.268 408.12L606.333 408.229L606.732 405.869L610.241 398.489L607.289 392.342L597.717 392.403L597.656 394.932L598.939 396.166L598.745 398.694L593.082 407.164Z" fill="white"/>
<path d="M608.245 391.955L611.463 398.235L607.603 406.329L607.095 408.785L626.372 420.703L632.35 411.314L629.325 408.858L629.264 396.492L633.052 392.354L627.014 394.363L622.451 394.423L615.312 388.398L613.061 387.43L608.886 387.817L608.148 389.051L608.245 391.955Z" fill="white"/>
<path d="M607.93 446.282L629.071 443.692L624.315 434.497L624.061 425.689L625.598 421.478L605.486 408.846L599.181 409.887L596.991 411.508L596.797 415.198L595.381 420.316L593.905 422.071L591.787 422.264L595.841 436.312L602.46 439.421L607.022 439.554L607.93 446.282Z" fill="white"/>
<path d="M564.341 462.35L568.178 467.673L574.119 468.036L576.225 469.198L582.445 469.27L587.806 461.757L602.787 455.054L604.094 449.149L602.351 440.692L594.534 436.239L589.318 436.602L586.717 442.361L586.789 444.987L592.937 447.975L593.3 454.473L588.011 454.763L586.705 452.573L572.014 446.306L571.578 451.121L564.632 451.339L564.341 462.35Z" fill="white"/>
<path d="M532.963 428.484L537.089 443.886L536.993 448.75L530.954 455.235L530.047 465.774L553.281 465.98L560.832 468.714L567.064 467.903L563.434 463.354L563.446 450.359L570.586 450.057V444.987L564.789 444.745L563.627 432.743L561.183 432.779L559.864 431.593L558.424 431.666L556.512 435.368H549.154L547.448 433.65L547.956 431.218L545.948 428.278L532.963 428.484Z" fill="white"/>
<path d="M603.803 455.937L607.567 459.869L607.494 464.903L608.22 467.02L613.218 461.624L612.637 454.763L609.963 452.718L607.579 440.68L603.452 440.534L605.328 449.21L603.803 455.937Z" fill="white"/>
<path d="M596.555 496.93L599.81 499.628L607.482 494.957L608.716 488.025V476.578L621.023 466.512L623.129 466.584L630.583 459.434L629.422 444.697L609.66 447.189L610.241 451.642L613.642 454.267L614.44 462.289L607.785 468.786L606.187 465.145L606.478 460.329L602.642 456.167L593.227 460.547L601.988 464.999L602.279 477.982L596.482 486.585L596.555 496.93Z" fill="white"/>
<path d="M576.576 471.545L587.431 483.802L595.756 485.919L601.335 477.171L600.899 465.58L591.848 460.91L588.447 462.446L583.377 470.178L576.358 470.105L576.576 471.545Z" fill="white"/>
<path d="M542.559 507.432L546.613 507.723L548.997 510.13L554.648 510.203L556.028 494.159V483.657L559.646 482.931L561.026 471.92L570.223 471.63L573.478 468.932L567.972 468.714L560.517 469.73L552.482 466.814H529.901L530.482 473.227L538.009 484.31L536.702 489.997L536.775 492.985L542.559 507.432Z" fill="white"/>
<path d="M557.032 494.449L559.634 495.248L559.271 502.689L561.945 503.052L568.093 497.51L575.475 498.309L577.435 493.348L586.777 484.818L575.559 471.908L575.414 469.791L574.18 469.428L570.779 472.562L561.945 472.779L560.711 483.79L557.238 484.588L557.032 494.449Z" fill="white"/>
<path d="M596.192 497.801L593.154 498.309L591.848 501.879L594.171 503.996H596.991L599.374 500.572L596.192 497.801Z" fill="white"/>
<path d="M579.904 511.582L583.594 508.739L585.337 508.811L587.443 511.437L587.225 514.062L583.679 515.369V516.386L579.77 516.168L578.827 513.324L579.904 511.582Z" fill="white"/>
<path d="M588.072 485.254L578.512 494.086L576.237 499.543L568.661 498.599L562.357 504.201L558.17 503.79L558.509 496.046L557.02 495.526L555.979 511.364L548.549 511.292L546.311 508.654L543.031 508.618L546.02 517.196L551.357 522.242L547.545 526.682L550.014 532.248L555.725 534.426L560.275 530.554L573.308 530.626L574.24 529.465L580.025 528.448L599.592 508.968L599.52 502.834L597.426 505.544H594.292L590.48 502.35L592.416 497.535L595.744 496.857L595.441 486.96L588.072 485.254ZM583.485 507.638L585.313 507.565L588.278 510.783L588.193 514.51L584.72 516.264L584.502 517.499L579.202 517.559L577.544 513.566L579.056 510.638L583.485 507.638Z" fill="white"/>
<path d="M330.28 57.4676L328.634 60.0931L331.599 63.0575L330.28 66.0218L334.564 71.6118L339.828 69.9662L346.738 69.3129L354.64 77.8672L359.904 92.0113L355.632 100.892L361.55 99.9002L364.841 101.872L365.168 106.156L357.931 106.482L361.876 110.427L366.814 111.419L355.959 125.89L354.64 134.771L356.939 142.006L355.293 146.289L358.258 155.497L363.849 161.752L365.495 161.426L369.113 160.433L369.44 165.697L371.739 168.988L376.011 168.661L379.302 156.489L389.177 144.317L403.988 138.4L413.197 126.882L417.469 128.854H426.351L433.588 121.619L442.47 118.001L443.463 112.411L437.872 107.474L432.935 105.829L430.296 98.9201L436.553 95.3024L446.427 100.566L449.719 96.9479L444.455 93.9835L455.649 78.8472L453.676 72.2651L448.412 71.9384L450.384 66.0218L456.968 63.0575L470.46 51.2122L466.515 46.9411L451.377 48.2599L443.475 56.1608L448.085 45.961L442.821 44.6422L439.856 49.9054L435.585 46.2877L423.738 47.6066L427.029 42.3433L446.439 41.6899L441.502 35.1079L420.446 31.1635L411.891 32.4823L412.217 36.7655L403.335 33.8011L403.662 30.8368L397.405 32.1556L396.086 35.4467L402.669 37.7455L395.76 42.6821L390.822 37.0922L383.913 35.12L382.92 40.3832H376.011L373.372 34.7933L362.518 33.1478L356.6 36.1121L356.273 40.0565L348.71 39.0644L344.1 41.0366L344.426 45.6465V47.9453L335.871 49.5909L331.926 46.9653L329.288 51.2364L333.233 55.5196L341.462 54.5274L342.115 57.1651L335.859 60.1294L330.28 57.4676Z" fill="white"/>
<path d="M356.612 108.793L358.585 111.757L357.592 115.375H355.62L352.982 112.411L353.635 110.112L356.612 108.793Z" fill="white"/>
<path d="M438.876 100.565L444.467 102.211L444.14 106.821L438.223 103.856L436.904 102.211L438.876 100.565Z" fill="white"/>
<path d="M862.781 514.716L862.358 545.424L857.638 548.885L857.215 551.909L863.653 556.229L879.541 553.204H887.698L890.699 548.872L908.73 545.412L921.605 549.308L920.746 554.499L922.464 559.689L932.339 557.959L932.762 560.548L926.325 565.303L928.467 567.034L933.186 565.303L931.903 579.581L940.919 586.502L946.074 584.771L948.651 587.361L963.681 585.195L977.852 562.266L983.007 560.972L993.305 541.94L995.882 525.508L989.445 517.293L992.022 515.563L986.867 499.555L981.288 495.659L982.147 474.038L976.992 470.142L975.71 458.03H973.132L964.54 486.573L959.821 487.008L949.087 476.191L955.101 460.184L943.944 458.018L931.492 461.479L928.055 471.424L922.476 472.719L922.053 465.798L899.303 479.64L899.726 484.83L896.289 489.585H887.698L869.231 497.365L862.781 514.716Z" fill="white"/>
<path d="M940.919 597.331L938.777 605.982L939.2 612.031L945.638 611.596L952.935 600.355L940.919 597.331Z" fill="white"/>
<path d="M1033.66 611.172L1037.1 617.657L1027.65 626.744L1026.79 631.499L1020.35 632.358L1009.62 642.304L999.743 637.549L998.883 634.088L1016.91 626.308L1033.66 611.172Z" fill="white"/>
<path d="M815.962 381.126L815.623 383.885L823.839 397.69H826.236L843.359 426.33L850.208 427.019L853.633 417.013L848.151 413.565L847.122 408.047L815.962 381.126Z" fill="white"/>
<path d="M866.375 399.699L870.03 403.922L884.043 399.07L886.814 388.374L893.058 387.926L898.77 383.788L891.364 378.392L889.67 375.427L886.015 382.167L887.359 386.039L885.132 389.269L880.933 388.192L870.756 395.658L871.022 399.977L866.375 399.699Z" fill="white"/>
<path d="M885.289 383.159L881.804 387.382L884.66 388.277L886.27 386.027L885.289 383.159Z" fill="white"/>
<path d="M897.1 419.288L899.835 422.639L898.056 427.673V428.628H902.098L903.526 416.045L904.833 416.408L907.205 427.903L909.467 428.508L911.609 423.595L909.467 416.166L907.689 412.936L913.279 408.858L911.972 407.055L906.624 410.528H905.196L902.582 406.692L903.417 405.01L907.822 402.857L914.477 404.889L916.498 404.768L921.496 400.098L919.475 398.065L914.84 401.659H911.864L907.35 399.505L904.143 399.626L900.573 405.373L898.31 415.319L897.1 419.288Z" fill="white"/>
<path d="M926.942 396.771L924.679 402.276L928.249 406.947H929.435L930.984 403.837L931.819 402.76L930.27 401.078L928.007 400.244L926.942 396.771Z" fill="white"/>
<path d="M933.96 414.859L929.084 415.936L927.656 417.497L928.842 419.529L932.048 418.332L934.069 417.134L937.046 419.529L938.353 418.453L935.981 415.573L933.96 414.859Z" fill="white"/>
<path d="M853.1 430.431L849.772 432.706L850.486 434.618L861.075 437.013L866.424 437.969L868.686 440.365L874.749 440.849L877.605 443.245L880.219 442.64L882.603 440.486L878.198 438.453L874.398 435.223L864.524 432.827L853.1 430.431Z" fill="white"/>
<path d="M887.71 440.849L885.096 442.288L886.645 443.97L890.445 442.53L887.71 440.849Z" fill="white"/>
<path d="M892.223 439.772L892.695 442.046L895.43 442.76L896.495 441.442L895.309 439.639L892.223 439.772Z" fill="white"/>
<path d="M898.77 445.761L895.442 446.245L898.419 448.762H900.791L898.77 445.761Z" fill="white"/>
<path d="M899.714 441.804L899 443.244L904.349 444.079L908.512 441.683L906.14 440.97L902.34 442.046L900.912 440.849L899.714 441.804Z" fill="white"/>
<path d="M917.2 442.652L911.017 447.806L911.61 449.125L914.223 448.641L917.309 445.761L923.372 444.927L922.186 442.894L917.2 442.652Z" fill="white"/>
<path d="M1007.16 419.155L1006.1 420.667L1011.92 425.822L1012.72 428.846L1014.3 428.665L1014.48 425.555L1012.72 423.958L1007.16 419.155Z" fill="white"/>
<path d="M1010.08 426.451L1008.93 426.717L1008.23 429.826L1006.02 431.254L999.404 432.416L999.67 434.908L1006.64 434.557L1011.06 431.799L1010.79 426.995L1010.08 426.451Z" fill="white"/>
<path d="M1017.93 431.871L1019.43 436.046L1022.08 438.623L1022.88 437.909L1022.61 435.15L1019.61 431.508L1017.93 431.871Z" fill="white"/>
<path d="M1025.25 438.09L1025.43 440.849L1027.12 442.446L1028.7 441.466L1027.28 438.526L1025.25 438.09Z" fill="white"/>
<path d="M1027.37 444.939L1025.95 446.451L1027.45 449.21L1029.22 449.742L1029.14 447.879L1027.37 444.939Z" fill="white"/>
<path d="M1030.82 443.341L1032.05 446.366L1034.44 449.21L1035.76 447.08L1033.99 444.055L1030.82 443.341Z" fill="white"/>
<path d="M1034.44 461.563L1032.32 462.543L1034.17 465.12L1035.76 464.225L1034.44 461.563Z" fill="white"/>
<path d="M896.907 356.879L895.866 358.863L895.285 361.307L889.501 368.652L889.852 370.164L892.284 369.813L899.799 361.416L896.907 356.879Z" fill="white"/>
<path d="M906.273 354.084L906.152 360.146L908.354 362.36L909.165 366.667L911.368 367.139L912.408 364.453L910.678 363.171L910.218 355.596L906.273 354.084Z" fill="white"/>
<path d="M912.529 356.419L912.408 361.779L913.679 363.873L915.881 361.308L915.3 356.649L912.529 356.419Z" fill="white"/>
<path d="M913.909 351.749L916.111 354.665L917.152 357.46H919.124L918.773 352.681L916.571 351.168L913.909 351.749Z" fill="white"/>
<path d="M918.193 362.711L918.652 366.208L914.599 369.474L911.246 369.825L907.665 373.673L907.786 375.427L911.138 374.375L913.449 372.862L915.421 377.871L918.894 380.316L920.286 379.844L921.557 378.331L918.786 375.536L920.407 374.254L922.259 375.766L923.529 373.673L922.259 371.108L922.029 365.397L918.193 362.711Z" fill="white"/>
<path d="M899.339 327.163L896.217 329.377L895.866 336.37L900.731 345.808L902.352 347.091L904.434 345.687L908.015 346.268L908.705 349.414L911.368 349.644L912.638 347.901L911.017 345.687L909.044 343.824L904.881 343.364L902.679 339.746L905.22 335.899L905.45 332.523L903.72 328.215L899.339 327.163Z" fill="white"/>
<path d="M900.96 348.022L901.88 351.289L903.502 352.342L904.663 350.83L902.812 348.264L900.96 348.022Z" fill="white"/>
<path d="M861.16 323.775L858.267 324.586L856.186 327.151L857.916 330.527L860.458 330.756L863.35 328.191L864.04 324.816L861.16 323.775Z" fill="white"/>
<path d="M894.595 297.326L890.311 300.593L890.081 306.885L893.784 311.192L894.704 310.381L894.595 297.326Z" fill="white"/>
<path d="M913.679 258.741L911.706 260.725L912.517 263.52L914.248 263.641L915.409 269.703L916.801 271.215L919.233 269.001L920.274 265.033L917.261 260.725L913.679 258.741Z" fill="white"/>
<path d="M924.328 254.784L920.976 257.93L920.855 261.548L921.665 262.601L926.179 258.753L925.828 254.905L924.328 254.784Z" fill="white"/>
<path d="M919.693 247.319L913.788 254.083L914.828 255.716L917.721 256.067L923.154 251.869L926.978 251.167L930.451 255.244L933.113 254.313L934.154 250.344L939.128 250.223L943.992 244.391L941.451 234.712L940.289 229.581L942.831 227.488L937.046 218.752L935.546 218.873L932.424 222.37V225.286L933.815 226.92L934.275 234.615L930.693 239.043L928.612 237.761L926.99 241.378L926.639 244.754L927.91 246.738L927.099 248.251L924.437 246.037H922.585L920.964 246.968L919.693 247.319Z" fill="white"/>
<path d="M929.652 194.638L927.801 196.272L928.733 199.768L930.354 201.402L930.233 206.762L928.152 207.573L926.53 211.19L931.274 217.712L934.396 216.659L934.977 215.026L931.625 212.001L933.706 209.315L935.909 209.666L937.639 211.529L937.76 207.681L942.504 203.834L945.166 203.132L942.964 199.405L941.923 197.772L940.193 198.934L938.692 200.797L935.449 200.095L932.097 197.881L929.652 194.638Z" fill="white"/>
<path d="M947.114 191.021L943.871 195.57L944.101 197.784L945.723 197.082L949.535 192.303L947.114 191.021Z" fill="white"/>
<path d="M951.398 184.378L950.237 187.524L950.357 189.617L952.33 188.335L954.182 184.608V183.217L951.398 184.378Z" fill="white"/>
<path d="M958.223 156.634L956.723 158.497L956.844 161.413L958.235 161.292L960.547 157.215L958.223 156.634Z" fill="white"/>
<path d="M955.452 163.749V168.879L957.074 169.46L958.235 167.596V163.64L955.452 163.749Z" fill="white"/>
<path d="M908.124 145.212L908.016 152.678L917.382 167.136L920.734 179.72L926.639 190.912L928.951 191.722L930.923 190.089L931.843 187.403L923.396 178.195L923.626 173.416L925.478 172.605L925.937 169.81L909.395 146.386L908.124 145.212Z" fill="white"/>
<path d="M973.386 122.018L971.075 122.248L972.466 124.232L975.359 126.216L976.169 125.285L973.386 122.018Z" fill="white"/>
<path d="M977.888 123.421L978.239 125.405L981.821 126.458L982.172 125.055L977.888 123.421Z" fill="white"/>
<path d="M997.552 131.032L999.065 133.742L1001.58 133.573L1002.09 131.709L997.552 131.032Z" fill="white"/>
<path d="M1022.93 135.267L1024.95 138.993L1026.46 137.299V134.758L1022.93 135.267Z" fill="white"/>
<path d="M1008.14 43.3354L1005.28 45.1988L1004.61 47.5702L1005.95 49.0948L1008.98 48.0784L1012 49.0948L1013.68 49.6029L1013.51 44.013L1008.14 43.3354Z" fill="white"/>
<path d="M25.3783 61.436L29.5653 69.2643L32.2518 68.6594V65.9491L25.3783 61.436Z" fill="white"/>
<path d="M36.6565 0.90271L31.9492 5.1738L33.365 8.33174L35.882 6.58943L37.2979 8.17445L41.9932 6.44423L41.8358 3.75817L36.6565 0.90271Z" fill="white"/>
<path d="M1.76883 130.294L1.56311 133.936L4.17697 133.331V131.709L1.76883 130.294Z" fill="white"/>
<path d="M695.288 601.396L695.107 606.587L702.295 608.257L703.953 603.986L701.375 604.724L698.06 605.462L697.14 601.566L695.288 601.396Z" fill="white"/>
<path d="M683.49 479.64L681.65 482.047L682.013 484.649L685.886 481.491L683.49 479.64Z" fill="white"/>
<path d="M676.677 483.729L673.918 483.911L673.736 486.319L675.576 486.694L678.335 485.399L676.677 483.729Z" fill="white"/>
<path d="M658.428 448.097L655.851 454.219L651.434 462.011L643.701 462.567L640.385 466.463L640.942 478.345L636.15 483.911L636.707 493.372L640.761 498.007L645.553 497.45L650.345 493.917L649.243 488.351L660.292 469.234L658.077 466.826L660.292 462.192L662.688 462.93L663.426 461.079L661.211 451.617L659.917 447.721L658.428 448.097Z" fill="white"/>
<path d="M640.748 446.052L641.305 447.903L643.701 448.278L644.621 445.87L640.748 446.052Z" fill="white"/>
<path d="M644.246 449.766L645.165 451.811H646.642L647.38 449.209L644.246 449.766Z" fill="white"/>
<path d="M670.59 430.456L669.852 431.944L671.873 433.614L673.349 431.944L670.59 430.456Z" fill="white"/>
<path d="M680.912 419.324L678.698 420.812L680.356 423.414H682.57L680.912 419.324Z" fill="white"/>
<path d="M681.832 425.822L680.356 427.491L681.457 429.161L683.478 429.536L683.659 426.003L681.832 425.822Z" fill="white"/>
<path d="M735.997 384.986L736.36 388.144L738.381 388.882L738.744 386.099L735.997 384.986Z" fill="white"/>
<path d="M738.575 391.665L738.393 395.561L739.869 396.299L741.164 393.697L738.575 391.665Z" fill="white"/>
<path d="M738.95 399.275L737.655 400.57L739.131 401.865L740.971 400.57L738.95 399.275Z" fill="white"/>
<path d="M392.613 259.467L390.968 261.124L393.92 262.782L394.247 260.471L392.613 259.467Z" fill="white"/>
<path d="M401.483 258.475L399.511 259.793L401.157 261.112L403.783 260.447L401.483 258.475Z" fill="white"/>
<path d="M402.79 263.109L401.81 265.759L403.117 267.416L404.763 266.097L402.79 263.109Z" fill="white"/>
<path d="M410.668 268.396L410.015 270.054L410.995 271.046L413.621 269.388L410.668 268.396Z" fill="white"/>
<path d="M435.621 282.94L434.314 284.597L435.621 286.255L437.593 285.263L435.621 282.94Z" fill="white"/>
<path d="M444.624 303.884L442.507 305.106L443.487 306.098L444.624 303.884Z" fill="white"/>
<path d="M437.267 304.114L434.641 304.779L435.948 306.764H437.92L437.267 304.114Z" fill="white"/>
<path d="M431.023 302.129L429.377 303.787L431.676 305.771L432.983 302.795L431.023 302.129Z" fill="white"/>
<path d="M410.668 348.422L408.369 349.741L410.015 351.06L411.987 350.067L410.668 348.422Z" fill="white"/>
<path d="M416.32 351.083L414.819 352.414L415.884 354.387L418.449 353.237L416.32 351.083Z" fill="white"/>
<path d="M413.04 354.822L411.116 355.972L413.185 358.742L414.819 357.883L413.04 354.822Z" fill="white"/>
<path d="M276.393 339.746L274.578 340.496L275.22 342.106L277.349 340.714L276.926 340.279L276.393 339.746Z" fill="white"/>
<path d="M279.382 341.573L278.317 343.836L279.6 345.554L281.198 344.163L279.382 341.573Z" fill="white"/>
<path d="M283.013 347.804L281.73 348.99L282.686 350.926L284.501 350.394L283.013 347.804Z" fill="white"/>
<path d="M282.904 352.644L282.045 354.471L283.436 355.972L285.252 355.004L282.904 352.644Z" fill="white"/>
<path d="M283.013 357.266L281.524 358.343L282.698 360.497L284.622 359.42L283.013 357.266Z" fill="white"/>
<path d="M281.198 361.453L279.806 362.844L280.338 363.703H282.045L282.577 362.3L281.198 361.453Z" fill="white"/>
<path d="M283.219 365.651L281.936 366.837L280.544 367.054V368.773L283.11 371.132L284.175 369.414L284.816 367.478L284.598 365.869L283.219 365.651Z" fill="white"/>
<path d="M269.677 336.952L266.483 335.875L263.917 337.484L265.2 338.984L269.568 339.626L269.677 336.952Z" fill="#EE6C4D"/>
<path d="M245.257 330.079L243.236 332.148L245.547 333.092L245.886 335.983L240.768 336.431L241.288 339.214L242.776 339.323L243.635 338.04L249.613 338.234L250.69 340.303L252.07 338.682L256.1 337.593L259.645 338.343L260.057 336.201L253.667 332.027L249.529 330.478L245.257 330.079Z" fill="white"/>
<path d="M260.069 336.201L253.667 332.015L250.642 330.986L249.626 338.246L250.69 340.291L252.082 338.682L256.136 337.605L259.657 338.355L260.069 336.201Z" fill="#EE6C4D"/>
<path d="M245.245 330.079L249.408 330.514L248.912 335.62L248.5 338.306L243.648 338.04L242.788 339.335L241.3 339.226L240.768 336.431L245.886 336.008L245.572 333.104L243.224 332.136L245.245 330.079Z" fill="white"/>
<path d="M314.331 611.753L311.148 611.402L307.977 613.532L310.277 616.024L314.331 611.753Z" fill="white"/>
<path d="M317.501 610.156L316.448 613.532L313.447 616.193L313.629 617.077L318.748 615.117L320.865 612.455L317.501 610.156Z" fill="white"/>
<path d="M433.419 138.824L431.047 137.481L427.852 139.501L425.105 142.042L425.178 143.458L428.735 143.905L428.518 146.446L427.259 147.717L427.562 148.54L431.119 148.769V152.883L436.238 153.779L439.276 155.497L442.688 155.642L448.545 152.726L453.071 146.749L453.144 142.708L450.397 140.385L448.097 138.437L447.057 139.187L445.496 141.207L443.717 140.977L441.938 139.029L439.639 139.247L436.299 142.018L434.29 144.184L433.177 143.216L433.104 140.82L434.217 140.07L433.419 138.824Z" fill="white"/>
<path d="M532.527 62.1743L530.531 60.1658L526.102 62.3195H517.97L516.687 67.0624L521.249 71.0915L523.246 70.8011L526.102 65.913L528.522 67.6432L526.804 71.0915L525.944 76.1249L527.941 79.2828L532.225 72.0958L537.791 65.3322L535.65 63.4689L532.527 62.1743Z" fill="white"/>
<path d="M534.948 53.5472L531.378 56.8503L533.52 60.1534H537.368L538.941 62.3071L543.649 64.7512L549.07 61.5933L552.785 58.4353L551.502 55.846L547.787 53.6923L545.076 56.1364L543.225 53.8375L541.797 53.9827L539.946 58.0118L537.235 55.2774L536.944 53.4141L534.948 53.5472Z" fill="white"/>
<path d="M543.08 68.3569L540.224 70.9462L537.804 72.8095L538.941 74.818L541.228 75.5319L544.943 73.8017L546.662 71.648L545.088 69.0587L543.08 68.3569Z" fill="white"/>
<path d="M604.602 43.8193L606.683 44.6542L605.219 47.1709V50.7402L602.097 52.6277H598.769L596.894 50.3167L597.099 47.8L598.564 45.9125H601.48L604.602 43.8193Z" fill="white"/>
<path d="M612.516 41.5083V44.025L614.598 45.7068L617.514 45.5011L620.019 43.1902V41.5083H617.732L615.856 42.1375L614.392 40.4557L612.516 41.5083Z" fill="white"/>
<path d="M624.4 41.726L625.864 44.8718L628.78 45.0775L630.862 44.2427L629.821 41.3025L627.11 40.6733L624.4 41.726Z" fill="white"/>
<path d="M636.271 37.5276L633.984 37.1041L631.902 39.2094L632.943 41.0969L633.572 44.0371L636.283 41.9439L636.912 39.6329L636.271 37.5276Z" fill="white"/>
<path d="M648.977 59.7784L648.348 62.7186L643.556 66.9171L633.342 69.2281L625.005 83.0819L623.54 87.0747L631.878 89.18L633.125 84.1466L635.63 76.3788L642.092 73.0152L647.513 68.8167L651.47 67.1349H653.551V61.4724L648.977 59.7784Z" fill="white"/>
<path d="M622.101 90.4264L627.728 91.0556L629.603 97.565L634.395 102.598L632.725 105.962H629.809L627.098 102.816L621.06 102.61L618.555 99.2469V96.9359L622.306 95.8832L622.101 90.4264Z" fill="white"/>
<path d="M710.04 18.8462L707.329 17.1644H704.207L703.578 19.0519L700.25 20.9394L697.745 21.7743L697.334 24.291L703.166 24.7145L710.04 18.8462Z" fill="white"/>
<path d="M716.49 19.4753L715.026 22.6212L712.109 22.4155L707.523 25.7791L706.276 29.9776H709.193L710.863 27.2432L714.82 30.1833L718.571 28.5015L721.282 26.1905L720.241 22.6212L718.777 20.1045L716.49 19.4753Z" fill="white"/>
<path d="M722.54 21.7863L724.005 27.6666L726.292 33.1234L728.797 28.7192L733.589 27.6666V24.5207L730.467 22.2097L722.54 21.7863Z" fill="white"/>
<path d="M836.873 12.3729L840.128 15.1074L842.439 14.1516L843.117 10.316L838.373 7.03711L835.251 9.09401L827.651 9.78367V13.2078L819.64 13.3409V18.9429L829.007 25.9122L831.451 24.1336L830.907 19.2091L836.885 17.7088L835.662 15.3857L833.496 13.1957L836.873 12.3729Z" fill="white"/>
<path d="M845.561 9.09405L847.727 13.1957L856.15 12.2399L858.461 9.22714L857.917 6.62577L855.605 5.66992L853.439 7.31544L847.195 8.68267L845.561 9.09405Z" fill="white"/>
<path d="M845.017 25.0896L840.805 24.0006L838.373 26.602L837.284 30.1592L842.984 29.6147L847.328 27.4247L845.017 25.0896Z" fill="white"/>
<path d="M954.157 1.43514L950.624 0.346191L946.558 1.84652L944.525 4.85927L947.102 8.2834L953.891 5.27065L955.246 3.77032L954.157 1.43514Z" fill="white"/>
<path d="M765.209 369.608L765.512 372.899L765.814 375.294L764.035 375.597L764.931 380.981L767.605 382.482L771.756 380.086L770.57 374.411L770.873 372.318L767.012 368.737L765.209 369.608Z" fill="white"/>
<path d="M208.929 319.843V321.379L215.367 321.5L218.404 319.734L218.876 321.029L225.193 322.565L230.808 327.635L229.525 329.401L229.755 331.41L234.439 332.584L239.122 330.466L241.227 328.349L238.19 326.812L222.519 317.617L217.025 317.024L208.929 319.843Z" fill="white"/>
<path d="M231.631 310.417L230.106 309.946L229.985 312.886L231.861 314.773L233.144 312.886L231.631 310.417Z" fill="white"/>
<path d="M234.668 315.015L232.563 316.189L234.547 319.02L235.6 317.604L234.668 315.015Z" fill="white"/>
<path d="M241.457 317.132L239.231 317.011L239.461 318.427L241.094 320.787L242.498 319.25L241.457 317.132Z" fill="white"/>
<path d="M240.404 314.314L236.774 312.777L236.072 309.123L237.476 308.53L238.88 311.361L240.283 312.426L240.404 314.314Z" fill="white"/>
<path d="M236.895 306.884L235.019 306.412L234.668 304.053L232.684 303.351L233.967 302.057L236.302 302.879L238.057 303.944L236.895 306.884Z" fill="white"/>
<path d="M230.808 335.173L226.597 336.238V337.411L229.053 338.827H231.631L233.265 336.939L230.808 335.173Z" fill="white"/>
<path d="M948.409 407.467L943.363 408.035L940.12 410.407L941.463 413.117L946.957 414.134V415.15L943.484 417.969L945.166 423.837L946.848 423.946L948.3 418.187H950.987L952.112 423.825L965.218 434.666L965.557 443.136L970.034 447.988L972.055 447.879L972.503 417.969L964.891 412.67L957.715 417.521L955.138 419.106L950.878 416.396L950.769 407.818L948.409 407.467Z" fill="white"/>
<path d="M54.3485 51.1999L44.1956 53.6077L46.2891 65.0416L57.3375 68.0544L57.9305 70.4622L41.5091 75.5802L32.2517 90.9222L35.5311 107.172L40.9041 110.777L45.0911 106.869L46.2891 109.277L41.2066 115.29L21.4937 124.317L8.9448 127.329L8.64227 131.842L37.6125 123.421L49.5564 120.106L60.6048 106.567L72.8512 98.4481L66.5828 108.975L73.4563 109.882L85.1097 104.764L87.2033 113.185L95.2627 114.988L103.625 123.107L104.218 129.12L103.02 130.62L104.508 136.331H106.601L106.904 126.7H109.288L109.881 150.463L115.859 145.345L111.672 120.675H105.403L98.53 111.951L132.28 54.7813L98.8325 28.6104L61.5003 35.8337L60.0119 47.2676L68.0713 52.0832L65.0823 59.9115L54.3485 51.1999Z" fill="white"/>
<path d="M188.212 40.3106L188.478 45.1746L178.821 55.1808L181.242 63.2874L188.212 61.3998L192.242 55.4469L202.431 51.6598L210.744 51.1154L204.307 44.0856L201.088 46.5176L198.667 45.7069L197.324 42.7305L194.371 39.754L188.212 40.3106Z" fill="white"/>
<path d="M200.821 25.9848L198.68 29.7719L209.147 33.559L212.898 27.8844L214.508 31.6715H217.194L222.289 25.9969L216.117 24.3755L213.697 22.488L210.478 25.7307L200.821 25.9848Z" fill="white"/>
<path d="M219.07 33.5592L210.757 37.068V39.7662L221.49 43.8195L219.07 46.5177L220.679 50.0265L227.384 47.05H233.023L235.709 51.3695L240.271 46.7717L239.194 42.4402L235.443 43.7953L234.91 38.3869L236.786 35.1442H234.91L231.958 37.0317L230.615 38.1086L231.425 41.8957L229.283 43.517L226.065 43.2508L225.254 38.3869L219.07 33.5592Z" fill="white"/>
<path d="M230.07 25.1742L229.259 27.8724L234.354 30.3043L238.105 28.1385L237.839 26.5172L230.07 25.1742Z" fill="white"/>
<path d="M234.088 20.5763L230.336 21.9314L230.603 23.8189L238.916 23.2745L238.65 21.387L234.088 20.5763Z" fill="white"/>
<path d="M252.07 25.1742L251.537 27.0617L250.194 28.9492V31.6474L255.289 30.8367L260.65 35.4345H262.525V30.8367L257.165 24.8838L252.07 25.1742Z" fill="white"/>
<path d="M265.757 30.5827L267.898 33.0147L266.023 36.2573L267.366 39.7661L273.271 36.5235V34.0915L269.786 30.0382L265.757 30.5827Z" fill="white"/>
<path d="M273.538 24.3635L273.804 28.683H281.052L282.928 30.3043L282.662 32.1918L276.224 33.0024L280.786 39.2215L286.958 40.2984L295.538 36.5113L283.194 17.854L279.443 20.286L279.709 23.5286L275.413 21.9073L273.538 24.3635Z" fill="white"/>
<path d="M211.023 54.9144L200.834 57.6126L194.928 62.7548L195.461 68.4295L206.194 71.6721L203.774 77.0805L195.993 72.2166L193.851 76.2699L198.946 79.7787L198.68 85.4533L206.461 87.6191L215.851 87.0746L217.461 84.0982L224.431 91.9386L229.259 90.3173L230.07 84.9088L233.555 87.3408L234.088 81.9324L229.792 79.2342L230.058 62.2104L226.307 59.2339L222.289 64.6423L211.023 54.9144Z" fill="white"/>
<path d="M243.756 66.8082L240.271 65.1869L238.396 67.6189L242.147 73.5718L242.413 79.2464L250.46 74.3824V67.3527L253.413 64.3762L250.46 62.2104H245.632L243.756 66.8082Z" fill="white"/>
<path d="M260.928 64.3762L255.289 68.974L256.632 74.6486H260.117L261.727 71.6722L264.147 74.1041L266.567 73.8379L273.005 68.4295L260.928 64.3762Z" fill="white"/>
<path d="M260.384 55.4469L259.04 58.1451L264.946 60.3109L266.555 57.8789L260.384 55.4469Z" fill="white"/>
<path d="M256.898 45.1746L250.993 45.9852L247.508 49.2279L253.946 49.494L252.07 54.358L253.413 56.5238L255.289 56.2576L259.851 48.9617L256.898 45.1746Z" fill="white"/>
<path d="M267.1 43.287L263.881 44.3638L264.413 48.6833L269.774 52.1921L270.04 54.8903L268.431 56.5116L269.242 61.9201L289.898 68.6715L295.538 70.559L301.177 65.6951L294.473 60.2866L288.301 61.908L279.721 61.0973L276.502 57.8547L275.692 48.9374L270.331 46.2392L267.1 43.287Z" fill="white"/>
<path d="M283.993 71.406L278.088 70.8616L271.117 73.5597L267.366 78.6899L268.443 92.7494L279.975 93.2939L290.975 98.7023L298.756 107.62L304.662 107.353L303.052 115.726L297.692 124.643L291.786 127.342L287.49 126.531L285.348 124.643L282.129 128.963L283.473 133.282L288.035 133.549L293.674 130.85L298.502 143.289L310.579 151.129L318.893 140.59L311.923 129.241L315.952 124.643L321.591 134.105L331.781 125.188L329.905 121.135L322.935 123.3L318.106 110.052L322.668 102.489L313.544 92.7615L308.449 96.2703L303.621 85.7317L293.432 87.0869L290.745 74.3825L282.432 80.0571L281.621 87.0869H277.059L277.591 80.8678L283.993 71.406Z" fill="white"/>
<path d="M296.07 76.2699L293.928 78.4357L295.804 81.4121L304.662 82.489L299.023 76.5361L296.07 76.2699Z" fill="white"/>
<path d="M287.49 45.7189V48.1509L281.585 49.5061L283.194 52.2042L289.898 54.9024L297.413 55.713L302.774 59.5002L308.135 56.5237L304.383 52.7366H309.212L312.165 49.494L319.413 48.4171V46.7958L315.383 44.0976L315.916 41.1212L327.182 43.0087L343.821 36.5234L337.65 34.6359L339.259 32.4701H352.135L354.277 30.3043L328.247 21.1088L322.075 18.943L315.371 23.8069L307.857 17.5878L303.827 17.3217L303.016 22.4639L297.921 17.8661L292.016 19.7536L293.093 22.7301L301.951 24.6176L301.419 28.9371L306.247 31.9135L318.058 28.9371L318.324 32.9904L308.667 37.5881L302.762 32.9904L297.401 33.5348L302.762 41.1091L300.075 42.4642L296.046 38.9554L293.093 40.8429L295.78 45.973H300.342L299.265 50.837L295.513 50.2925L290.685 45.1503L287.49 45.7189Z" fill="white"/>
<path d="M263.578 120.118L258.459 126.555L258.145 133.645L262.622 131.068H268.056L271.892 134.613L275.413 131.709L263.578 120.118Z" fill="white"/>
<path d="M325.911 203.846L313.12 216.091L314.403 218.994L330.062 224.79L332.301 220.93L331.018 214.493L325.899 215.135L323.019 211.916L327.811 207.089L325.911 203.846Z" fill="white"/>
<path d="M133.139 55.7615L135.548 59.4034L136.758 64.2673L142.784 65.7798L147.007 61.2304L150.626 63.0574L160.875 63.9649L168.112 60.9279L169.322 70.9462H173.545V66.6993L177.769 67.0018L188.321 79.4521L195.255 83.699L191.637 89.4704L193.149 90.9828L206.691 93.7173L206.993 99.7912L210.611 100.396L211.519 91.2853L217.243 89.7729L221.466 96.1493L230.506 100.396L235.032 101.304L238.045 97.6617L238.347 91.8903L243.769 88.5508L245.572 93.4148L240.743 101.921L241.348 106.168L244.059 101.921L249.48 97.0567L249.783 90.6803L246.77 85.8164L247.677 81.872L254.914 78.2301L258.23 80.662L258.835 101.921L263.953 97.3713L266.967 99.1983L262.743 106.482L268.165 107.692L276.006 95.5443L282.638 102.526L279.927 114.976L273.296 118.618L266.967 115.581L255.519 118.013L256.729 121.957L253.716 126.821L244.374 128.951L233.821 137.154L224.479 149.604L223.269 153.549L229.598 155.981L232.006 162.055L240.743 170.863L254.611 176.937L251.598 190.9L251.296 194.844L254.914 197.276L259.742 190.9L260.347 178.752L267.886 178.449L271.505 171.468L272.11 160.845L281.754 142.018L293.807 146.265L300.136 155.073L297.425 163.882L302.254 166.616L314.004 158.715L317.32 180.276L328.174 193.332L328.477 200.01L316.424 203.047L310.7 209.121L298.648 206.387L292.621 206.084L282.069 214.288L288.398 212.775L296.239 211.263L297.752 213.09L295.646 219.769L295.949 225.843L299.567 228.275L303.185 227.367L305.001 224.633H307.409L303.488 231.917L295.949 232.219L292.633 237.083H288.41L287.2 233.441L293.226 227.367L285.99 229.799L285.663 219.478L283.582 218.268L277.253 221.003L276.648 226.169H262.175L249.819 234.675L233.241 240.144L231.437 237.712L239.787 225.25L235.044 220.688L232.03 214.905L225.895 210.222L219.312 209.678L207.513 201.414L121.946 187.355L120.53 181.559L112.688 174.275V168.201L113.899 162.732L113.293 159.695L110.28 156.658L109.675 151.794L117.517 146.325L112.688 120.215L106.057 119.912L100.031 112.012L133.139 55.7615Z" fill="white"/>
<path d="M121.692 188.468L120.482 193.331L116.258 190.597H114.153L112.943 195.763L98.1671 228.867L102.088 257.712L106.916 260.144L107.824 268.045H117.771L127.416 275.329L146.402 277.156L148.508 286.872L151.521 289.001L155.745 284.755L159.06 286.267L162.073 300.23L167.192 303.569L171.416 295.668L184.376 286.255L192.811 290.199L200.047 290.804L200.35 286.255L215.416 286.557L218.429 289.897L219.034 297.483L217.231 301.73L219.336 309.014H223.862L228.388 302.032L226.585 298.693L224.782 291.409L227.493 283.206L239.848 272.583L249.19 269.848L247.98 261.04L260.94 247.065L273.901 244.935L271.795 237.664L284.453 230.38V220.664L283.243 220.059L278.717 221.571L278.112 227.524L263.07 227.706L251.284 235.534L232.781 241.584L229.828 237.966L238.226 225.262L234.076 221.305L231.256 215.933L225.411 211.239L219.058 210.706L207.054 202.515L121.692 188.468Z" fill="white"/>
<path d="M103.625 152.254L101.567 156.199L102.281 158.994L103.625 159.828L103.31 160.966L101.87 161.377L102.281 165.527L103.83 167.088L105.065 165.745L103.516 161.704L104.435 158.485L106.698 155.473L105.053 152.678L103.625 152.254Z" fill="white"/>
<path d="M110.426 175.896L108.574 176.622L111.974 180.567L112.797 185.237L116.198 188.867L119.078 188.347V183.579L115.581 181.402L110.426 175.896Z" fill="white"/>
<path d="M177.502 349.607L184.678 354.859L191.915 345.869L190.681 344.005L188.212 343.921V338.657L186.361 337.532L180.758 339.202L182.9 344.138L177.502 349.607Z" fill="#EE6C4D"/>
<path d="M192.835 346.292L204.016 345.868L207.332 349.813L205.263 349.341L201.281 349.51L196.078 354.399L193.851 359.347L192.387 358.573L192.375 353.152L189.156 350.999L192.835 346.292Z" fill="white"/>
<path d="M185.695 355.354L191.383 358.186L191.298 353.697L188.381 351.918L185.695 355.354Z" fill="white"/>
<path d="M205.166 350.321L207.816 350.854L207.901 356.286L204.815 365.095L196.501 364.272L194.65 360.025L197.119 354.871L201.802 350.515L205.166 350.321Z" fill="white"/>
<path d="M204.73 365.893L206.412 369.184L207.78 370.999L205.94 376.456L202.431 373.988L196.695 368.737V365.264L204.73 365.893Z" fill="#EE6C4D"/>
<path d="M208.615 371.496L206.848 377.013L212.681 378.525L216.299 379.239L216.916 374.968L220.801 373.008L224.249 374.787L225.605 376.952L227.25 376.759L228.545 372.827L224.237 371.048L220.97 369.269L217.703 371.496L213.818 373.456L209.849 371.859L208.615 371.496Z" fill="#EE6C4D"/>
<path d="M248.718 359.601L246.225 359.347L229.743 372.935L228.001 377.714L225.75 377.968L226.754 388.531L221.006 402.627L227.25 407.914L235.249 408.423L240.743 416.481L248.73 416.735L248.476 422.772H251.465L254.708 411.701L251.707 407.926L252.457 400.885L258.701 400.376L257.951 384.018L243.962 379.493L240.719 370.685L248.718 359.601Z" fill="#EE6C4D"/>
<path d="M244.761 367.03L245.293 370.164L249.226 371.41L250.122 365.639L254.272 361.344L258.423 366.207L267.971 368.809L276.055 367.115L281.561 373.903L285.711 376.504L281.161 383.437L282.686 388.688L280.084 391.907L277.386 394.169L271.541 391.229L270.198 392.584V396.771L274.469 398.803L271.323 402.203L268.177 405.603L264.026 405.264L259.851 400.679L258.968 383.425L244.713 378.561L242.123 370.975L244.761 367.03Z" fill="#EE6C4D"/>
<path d="M286.619 376.964L295.356 384.877L291.883 388.894L291.605 391.278L296.167 395.984L296.058 400.51L288.12 403.534L283.364 397.11L284.38 389.39L282.347 383.643L286.619 376.964Z" fill="white"/>
<path d="M296.397 385.446L298.865 387.708L302.689 385.337L306.174 385.446L305.727 386.801L304.262 389.85L304.033 397.436L297.074 400.268L297.413 395.404L292.924 391.217L293.154 389.064L296.397 385.446Z" fill="white"/>
<path d="M307.288 386.244L314.367 390.66L310.664 398.017L309.321 399.711L305.388 397.448L305.497 389.523L307.288 386.244Z" fill="white"/>
<path d="M220.244 403.244L214.52 406.801L214.108 412.076L212.959 413.807L216.565 417.267L215.004 418.973L215.367 423.329L221.817 424.866L231.583 413.311L231.558 409.281L226.875 408.979L220.244 403.244Z" fill="#EE6C4D"/>
<path d="M213.987 419.784L211.64 422.155L211.797 425.942L232.297 463.305L253.583 477.026L256.874 471.509L257.661 459.373L255.942 451.811L250.146 442.035L246.697 443.136L245.136 444.866L238.25 436.977L239.969 427.673L247.956 422.47L247.326 417.582L239.194 417.267L234.971 410.177L232.623 409.39L232.781 413.649L222.301 426.1L214.472 424.212L213.987 419.784Z" fill="#EE6C4D"/>
<path d="M254.744 447.939L264.704 443.595L267.995 443.91L270.185 453.057L285.36 458.102L287.865 465.834L294.122 466.62L296.784 473.239L294.908 479.228L284.731 480.014L280.98 489.633L272.993 489.476L270.488 489.004L265.877 493.481L263.602 493.263L255.773 475.126L257.939 471.884L258.701 459.058L256.765 451.424L254.744 447.939Z" fill="white"/>
<path d="M294.739 480.269L297.401 483.172L297.087 489.319L304.759 488.847L310.555 496.264L310.083 502.882L306.332 508.557L298.66 508.872L298.345 505.714L300.535 500.511L293.02 495.78H286.764L282.069 490.735L285.481 480.982L294.739 480.269Z" fill="#EE6C4D"/>
<path d="M305.146 519.495L302.665 522.145L303.694 536.398L311.487 538.66L321.398 528.727L305.146 519.495Z" fill="#EE6C4D"/>
<path d="M311.33 502.883L313.677 505.085L304.759 518.334L301.624 521.806L302.714 536.942L309.599 545.303L303.815 555.394L299.434 557.282H294.424L295.828 565.158L287.999 567.844L289.874 574.463L285.179 589.442L290.975 594.173L287.841 601.892L282.517 610.253L285.336 616.085L278.451 617.186L272.812 610.253L271.868 588.655L263.106 551.97L265.757 539.145L260.117 522.75L263.869 501.467L267.318 497.365L266.47 494.256L270.9 490.215L280.774 490.892L286.292 496.785L292.67 496.893L299.204 500.886L297.28 505.387L297.74 509.937L306.997 509.501L311.33 502.883Z" fill="#EE6C4D"/>
<path d="M286.607 618.916L281.44 630.265L290.358 631.209L290.516 623.647L286.607 618.916Z" fill="white"/>
<path d="M291.302 624.591L291.617 631.524L296.941 631.052L301.479 628.051L293.807 626.478L291.302 624.591Z" fill="white"/>
<path d="M284.852 617.137L280.968 621.432L280.496 626.478L272.981 622.219L264.994 610.712L262.646 606.61L265.938 602.351L265.623 596.991L261.872 595.419L258.895 593.216L259.524 590.216L263.433 589.115L264.22 571.776L258.121 568.304L254.139 478.054L255.168 476.264L262.961 494.231L265.454 494.28L266.265 497.147L262.949 501.164L259.137 522.786L264.558 539.435L262.053 552.042L270.887 589.115L271.819 610.797L278.148 618.117L284.852 617.137Z" fill="#EE6C4D"/>
<path d="M259.065 571.777L257.503 574.136L258.29 578.238L259.851 578.395L260.638 573.192L259.065 571.777Z" fill="white"/>
<path d="M321.942 527.868L329.505 513.324L329.784 501.104L343.894 492.005H351.796L358.004 481.491L359.129 461.309L356.588 455.913L371.545 442.265L372.114 427.201L351.796 417.255L327.255 409.584L315.686 408.447L318.796 401.913L317.949 391.968L315.42 391.133L311.68 398.562L309.72 401.018L304.686 398.792L287.756 404.757L282.117 397.654L283.025 390.237L277.7 395.658L271.819 392.488L271.226 393.323L271.238 395.9L276.309 398.622L268.697 406.644L263.893 406.596L259.028 401.647L253.522 401.816L252.844 407.697L256.003 411.532L252.276 423.474L247.919 423.813L240.985 428.193L239.291 436.796L245.305 443.233L246.407 441.986L250.63 440.849L254.236 446.923L264.558 442.495L268.564 442.724L271.323 452.489L286.05 457.159L288.591 464.951L294.86 465.701L297.849 473.142L295.828 479.761L298.466 483.221L298.079 488.375L305.146 487.71L311.62 495.889L311.112 501.636L314.948 504.879L305.751 518.805L321.942 527.868Z" fill="#EE6C4D"/>
<path d="M189.216 338.573L189.156 342.989H190.172L193.633 336.528H191.286L189.216 338.573Z" fill="#EE6C4D"/>
<path d="M931.516 85.1266L933.646 92.4831L937.905 93.7051L942.165 86.9658L939.733 82.368L940.64 78.3873H947.03L945.505 81.4484L946.11 92.4831L936.986 115.157L937.893 120.058L937.591 128.334L954.617 153.149L957.957 154.069L958.26 133.851L961.6 130.79L957.945 122.828L960.982 119.453L954.29 110.572L950.636 110.874L949.426 96.1734L958.853 93.7172L959.458 89.4219L964.322 88.1999L967.057 90.6561L970.397 77.1773L976.169 67.3768L980.732 64.9207L984.689 65.2231V60.6254L978.299 59.4033L969.477 52.0469L973.737 47.1466L970.083 38.8707L973.12 35.8095L976.774 40.7098L985.899 44.0855L995.931 45.0051L997.153 40.7219L991.986 35.5191L997.758 27.5577L984.677 22.96L981.337 29.6993L977.077 24.182L953.056 15.906L930.245 19.8867L926.905 21.7258V23.5649L931.77 26.0211L931.165 31.8409L922.343 28.1627L902.885 35.8216L899.545 28.7798H886.161L880.074 35.2166L858.485 30.3164L838.724 34.2971L836.292 40.4194L839.329 41.3389L839.027 45.9367L819.87 48.0783L821.093 54.2006L803.449 51.1394L807.709 43.178L789.763 42.2585L791.287 50.5345L785.515 53.2931L780.65 48.6954L760.889 52.0711L753.29 59.1129L752.987 63.3961L748.122 63.6986L747.517 58.7984L763.031 45.3196V36.1241L752.999 33.3654L739.918 37.6486L734.448 32.1313H732.016L728.978 38.2536L731.411 41.0123L714.07 50.5103L699.173 61.8474L690.049 74.4066V79.6093L699.778 83.59L694.913 87.2682L684.579 83.59L680.319 87.2682L673.93 79.9118L672.708 82.6705L679.702 104.728L681.529 105.345L686.394 102.889L688.826 104.728V108.708L684.264 106.869L681.529 109.011L683.357 112.992L681.832 123.409L672.405 124.329L671.8 120.953L677.27 117.577L678.492 108.382L672.405 100.42L670.275 86.6391L660.546 85.1025L659.638 90.0027L661.466 92.4589L657.509 95.8346L659.033 105.03L664.806 107.486L666.028 114.226L660.243 110.547L645.347 107.789L643.52 112.689L631.66 116.972L629.833 113.911L614.319 122.49L614.017 128.309L607.93 129.229L609.757 124.946V120.663L603.67 118.521L599.713 120.058L603.053 126.494L605.485 130.778V134.153L600.923 133.234L600.016 132.314L595.454 137.215L597.886 141.498L587.552 141.195L590.891 145.491L589.984 147.33H584.514L580.557 144.571L579.649 136.912L573.26 134.456V131.395L586.644 134.153L593.941 134.77L596.978 130.173L594.244 125.272L574.785 117.614L568.069 119.283L565.769 121.255L566.483 125.793L569.339 126.289L568.674 133.427L577.483 154.117L571.118 164.208L570.682 166.483L573.914 168.758L570.997 170.681L569.061 170.718L569.424 179.611L572.098 183.398L572.135 187.076L575.559 187.391L580.799 189.387L586.341 197.01L586.402 199.018L584.599 202.104L588.737 201.874L592.767 203.035L598.213 210.743L611.621 211.965L611.04 221.136L606.417 225.092L607.373 226.641L602.811 231.541L601.601 236.139L604.336 240.12L613.158 243.181L616.812 241.039L640.228 249.92L641.136 247.464L636.271 242.866V237.047L633.234 236.127L633.839 231.227L638.703 225.407L629.978 218.873L630.583 209.787L639.913 203.652L650.865 204.269L652.692 207.645L663.946 208.262L672.163 203.664L667.903 199.067L668.811 190.488L690.097 180.071L706.47 187.451L711.94 182.551L728.059 197.869L740.22 196.647L744.48 200.93L756.037 202.152L763.636 191.734L773.365 196.03L778.533 196.949L783.7 192.352L779.138 189.29L783.095 183.168L794.349 186.846L796.781 191.747L801.646 192.049L804.683 189.907L812.9 189.605L813.808 191.747L823.234 192.364L829.624 185.624L842.705 187.161L846.662 185.624L847.872 178.268L843.915 169.387L847.872 166.011H860.337L872.196 180.107L887.395 188.685H891.957L892.562 185.007L898.032 181.631L898.637 201.547L893.772 201.85V206.75L896.507 210.126L895.999 214.505L898.02 215.34L899.242 212.279L901.069 212.896L902.279 214.118L907.749 212.896L913.219 196.961L913.824 177.046L906.83 161.111L898.008 150.391L893.748 151.008V154.384L883.414 150.403L887.371 141.824L890.711 119.15L904.7 114.867L911.392 110.584H918.689L916.861 113.04L918.689 116.101L925.078 109.362L928.733 109.664L928.128 105.684L922.343 104.461L926.3 90.0632L931.516 85.1266Z" fill="white"/>
<path d="M752.939 202.66L748.752 213.187L742.979 212.884L736.892 226.206L742.06 232.788L731.411 247.489L725.941 246.569L722.286 251.167L723.194 253.925L727.454 254.228L729.583 259.128L733.843 260.048L746.924 276.902V285.481L753.314 289.461L760.308 288.239L769.13 293.442L779.779 296.503L784.946 295.886L790.731 295.269L802.892 287.308L806.849 287.925L808.362 291.518L811.714 292.522L816.276 299.262L813.239 306.001L815.066 310.599L820.233 312.438L821.141 317.955L827.228 318.572L828.135 315.814L836.957 311.216L842.427 311.519L848.816 318.56L853.076 316.721L855.811 317.024L857.033 320.399L859.163 320.702L862.2 316.419L874.362 311.821L885.314 298.645L888.968 286.086L888.666 277.81L884.104 276.89L886.838 273.829L886.233 268.929L874.677 257.289V251.469L878.017 247.186L881.357 245.649L881.659 242.274H873.14L871.615 246.871L867.658 245.952L862.793 240.749L865.831 232.788L870.09 228.19L874.047 228.492L873.442 235.534L875.572 237.373L880.739 232.171L882.567 231.868L881.962 227.887L886.826 222.068L890.481 222.37L892.611 215.631L895.104 214.312L895.358 210.113L892.937 207.573L892.732 200.942L897.391 200.64L897.088 183.543L893.821 185.503L892.599 189.883L887.141 189.871L871.325 180.978L859.901 167.209L848.308 167.088L845.356 169.653L849.107 178.244L847.8 186.302L843.129 188.238L840.503 188.032L840.309 196.006L843.044 196.623L847.909 194.481L854.298 197.542V200.603L849.736 200.906L846.082 208.867L842.742 209.17L830.882 224.79L818.418 230.307L809.899 230.924L804.127 226.944L795.91 231.239L787.088 228.48L784.958 222.661L770.062 221.741L762.16 208.879H758.82L756.133 202.914L752.939 202.66Z" fill="white"/>
<path d="M757.053 202.781L764.096 193.441L772.555 197.349L778.303 198.885L785.346 192.424L780.566 188.903L783.712 184.463L793.103 187.778L796.358 193.114L802.239 193.271L805.313 190.984L811.642 190.73L813.021 193.078L823.537 193.61L830.193 186.822L839.402 187.79L838.869 197.034L842.899 197.954L847.848 195.703L853.088 198.292L852.967 199.599L849.167 199.708L845.21 208.008L842.137 208.311L830.181 223.931L817.971 229.315L810.335 229.908L803.994 225.819L795.886 230.15L787.899 227.67L785.636 221.874L770.51 220.809L762.765 207.682L759.001 207.44L757.053 202.781Z" fill="white"/>
<path d="M883.486 231.941L885.713 232.872L886.391 240.664L890.808 240.918L894.97 236.042L893.53 234.76L893.7 229.533L897.524 224.911L895.575 221.402L896.846 219.95L897.548 216.32L895.333 215.316L893.446 216.272L891.11 223.362L887.335 223.036L882.966 228.19L883.486 231.941Z" fill="white"/>
<path d="M895.66 236.696L903.139 242.794L904.409 248.698L904.155 251.868L900.501 255.982L897.354 256.152L893.784 248.444L892.429 244.766L893.869 243.653L893.53 242.116L891.751 241.318L895.66 236.696Z" fill="white"/>
<path d="M639.538 225.105L644.5 222.987L650.042 222.794L650.429 231.263H647.186L644.706 235.304L647.949 240.689L652.729 243.387L653.164 246.472L654.919 245.891L656.54 243.968L659.215 244.548L660.558 247.246H663.995V243.786L661.889 237.627L660.933 232.63L667.044 229.932L675.261 231.275L680.416 236.466L692.07 235.316L698.568 244.548L706.204 244.935L708.309 241.475L710.984 240.894L711.371 237.047L715.376 236.853L717.482 239.358L719.588 234.361L737.727 236.865L740.777 232.824L735.622 226.472L742.495 211.469L748.038 211.856L751.862 202.624L744.226 201.85L739.833 197.615L727.732 199.018L712.145 183.955L706.652 188.831L689.988 181.268L669.549 191.275L668.981 198.389L673.76 203.967L664.443 209.23L652.353 208.964L649.824 205.249L640.349 204.729L631.37 210.501L631.176 218.389L639.538 225.105Z" fill="white"/>
<path d="M660.304 248.057L659.554 251.239H654.532V255.547L659.929 259.104L658.259 263.98V266.23L660.498 266.606L663.474 262.673L670.179 261.173L684.506 266.606L684.688 270.538L692.687 271.288L701.617 261.911L700.504 258.91L694.55 257.604L677.802 246.726L677.052 242.794H670.723L667.928 248.045H665.132L660.304 248.057Z" fill="white"/>
<path d="M702.743 261.935L706.47 262.129V255.752L702.937 253.696L708.89 246.194H711.311L713.731 249.013L720.06 246.581L711.311 243.58L710.972 241.766L708.89 242.274L706.845 245.831L698.024 245.541L691.549 236.381L680.174 237.507L674.753 232.134L667.25 230.864L661.805 233.078L664.963 243.58L664.999 247.113L667.299 247.162L670.118 241.79L677.621 241.887L678.734 246.012L694.817 256.684L701.037 258.112L702.743 261.935Z" fill="white"/>
<path d="M704.28 253.199L709.253 247.029H711.129L711.782 248.408L709.483 250.078V251.457L710.996 252.546L718.269 252.981L720.64 251.965L721.717 252.183L722.444 254.506L726.764 254.942L728.93 259.515L728.276 260.894L727.417 260.967L726.558 259.225L724.682 259.08L721.439 259.515L721.221 262.564L717.978 262.346L718.123 258.499L715.752 256.176L712.145 259.152L712.218 261.112L709.047 262.201H707.172L707.317 255.45L704.28 253.199Z" fill="white"/>
<path d="M712.291 237.918L711.916 240.979L712.218 242.866L722.746 246.399L713.501 250.126L712.448 249.255L710.451 250.537L710.548 251.239L711.613 251.723L718.099 251.893L721.391 250.9L725.614 245.577L730.902 246.496L737.28 237.664L720.217 235.341L717.857 241.064L714.88 237.869L712.291 237.918Z" fill="white"/>
<path d="M684.833 271.603L686.757 286.678L691.549 287.731L691.997 290.441L688.56 293.309L694.962 298.475L707.402 293.999L708.394 288.699L716.224 283.811L719.225 272.486L721.463 270.078L719.14 266.037L726.715 261.354L725.747 259.999L722.25 260.217L721.935 263.436L717.24 263.387L717.155 259.092L715.643 257.289L713.101 259.6L713.174 261.717L709.338 263.169L702.259 262.722L693.062 272.353L684.833 271.603Z" fill="white"/>
<path d="M695.736 299.177L698.883 303.848L698.58 306.255L694.393 307.913L694.091 311.833H698.883L700.528 310.478H709.653L717.881 317.713L718.934 314.241H725.07L725.215 309.873L718.934 303.848L720.277 300.532L726.715 300.085L735.392 281.996L730.6 278.233L728.809 271.905L740.474 270.852L733.589 261.052L729.922 260.06L728.422 261.875L727.296 261.959L720.411 266.327L722.661 270.102L720.12 272.813L716.974 284.416L709.193 289.389L708.14 294.821L695.736 299.177Z" fill="white"/>
<path d="M753.64 375.609L759.183 372.899L762.474 360.993L762.329 346.377L781.183 326.026V321.198L785.067 319.685L784.922 314.108L780.735 305.965L783.131 301.597L788.371 306.424L795.099 306.727V309.437L793.006 311.7L793.453 312.91L797.047 313.055L797.798 317.12H798.851L801.549 312.293L802.892 299.637L807.382 296.467L807.527 292.099L805.736 288.626L802.892 288.481L791.759 295.838L792.461 300.568L784.644 300.544L781.885 297.168L780.384 297.362L780.892 302.057L763.987 300.847L753.507 296.176L752.951 290.429L745.968 286.097L745.884 277.18L741.092 271.699L730.08 272.752L731.278 277.543L736.675 281.911L727.345 301.004L721.1 301.476L720.072 303.775L726.219 309.461L725.917 315.209L719.636 315.112L718.958 317.967L724.174 317.737L724.319 320L720.58 321.96L722.976 326.485L727.611 327.998L730.455 325.892L731.798 322.13L733.444 321.379L735.392 323.339L734.799 328.167L733.456 330.43L733.758 334.35L753.64 375.609Z" fill="white"/>
<path d="M753.895 290.369L754.451 295.535L764.229 299.964L779.9 301.125L779.307 297.338L768.839 294.458L759.957 289.171L753.895 290.369Z" fill="white"/>
<path d="M783.192 297.048L785.067 299.613L791.408 299.661L790.767 296.152L783.192 297.048Z" fill="white"/>
<path d="M783.397 303.134L781.812 306.001L785.926 313.817L786.048 319.915L786.798 321.549L791.626 321.634L794.361 319.008L796.346 320.206L796.745 323.92L798.33 322.928L798.427 318.185L797.096 318.028L796.261 313.999L792.897 313.878L792.062 311.639L794.119 308.893L794.155 307.538H788.177L783.397 303.134Z" fill="white"/>
<path d="M824.384 364.284L821.032 358.912L823.464 355.5L821.165 351.277L818.999 350.866L818.588 343.776L815.344 337.496L814.401 338.996L812.234 342.675L809.524 343.086L808.168 341.307L807.491 336.528L805.458 332.705L797.181 324.901L799.214 323.557L799.589 317.907L802.614 312.825L803.921 300.181L808.302 297.193L808.447 292.583L811.073 293.454L815.211 299.443L812.138 306.025L814.207 311.192L819.326 313.2L820.258 318.827L827.131 319.891L825.231 323.17L816.567 326.582L815.623 332.172L821.988 340.351L822.254 344.719L820.766 346.22L820.899 347.587L825.643 354.544L825.776 361.767L824.384 364.284Z" fill="white"/>
<path d="M825.098 324.138L829.019 329.183V335.318L830.374 335.995L836.606 332.995L837.829 333.406L845.271 341.997L845.005 347.865L842.572 347.453L840.406 346.086L838.785 346.219L835.941 350.987L836.485 353.576L838.785 354.798L838.651 357.665L837.03 358.488L831.475 354.665V351.253L829.176 351.12L828.232 352.62L827.748 367.889L831.342 374.447L837.708 380.582L837.441 382.36L834.053 382.227L830.943 377.593H827.688L823.622 374.314L822.4 370.902L824.154 368.035L824.759 365.445L826.671 362.057L826.587 354.265L821.916 347.514L821.722 346.691L823.235 345.167L822.884 339.807L816.664 331.93L817.39 327.393L825.098 324.138Z" fill="white"/>
<path d="M828.341 378.561L830.774 384.018L831.318 391.108L834.573 396.154L842.427 400.921L845.404 401.199L844.859 396.287L842.282 390.019L838.506 381.997L838.192 383.401L833.642 383.195L830.374 378.501L828.341 378.561Z" fill="white"/>
<path d="M837.744 359.226L842.693 364.514L851.902 357.69L852.713 346.921L847.957 350.2L845.489 348.821L842.136 348.373L840.261 347.054L839.353 347.103L836.897 351.132L837.296 352.995L839.789 354.387L839.486 358.174L837.744 359.226Z" fill="white"/>
<path d="M831.681 315.015L828.753 316.503L826.32 323.594L830.386 328.772L829.709 334.495L830.386 334.773L837.151 331.495L846.227 341.634L846.009 348.022L847.981 349.087L852.858 345.131L852.459 341.997L838.385 328.627L838.518 326.582L840.273 325.36L839.051 321.948L833.23 320.992L831.681 315.015Z" fill="white"/>
<path d="M843.286 365.252L844.726 367.514L844.992 370.104L848.78 370.515L853.379 364.381L857.711 363.159L860.01 356.891L858.933 346.8L854.468 340.666L849.76 336.903L843.77 326.618L848.066 319.431L841.919 312.377L836.994 312.16L832.565 314.543L833.884 320.242L839.789 321.283L841.374 325.675L839.293 327.03L839.426 328.119L853.282 341.67L853.826 345.651L852.991 358.234L843.286 365.252Z" fill="white"/>
<path d="M613.847 243.907L617.804 249.073L622.742 251.348L625.779 251.336L630.995 249.92L632.302 247.876L616.873 242.104L613.847 243.907Z" fill="white"/>
<path d="M631.104 250.84L636.912 258.414L635.206 260.411L631.092 259.697L625.985 255.123L626.263 252.123L631.104 250.84Z" fill="white"/>
<path d="M633.149 248.214L631.927 250.295L637.626 257.773L639.611 257.132L642.878 260.556L644.294 254.554L647.84 255.123L647.695 253.405L641.862 248.299L640.748 251.3L633.149 248.214Z" fill="white"/>
<path d="M631.019 260.592L629.543 262.129L629.688 264.561L631.527 267.138L638.05 274.276L637.058 277.132H635.92L635.351 279.987L639.042 284.706L642.443 284.997L649.255 294.422L653.08 294.712L656.056 296.854L656.202 301.137L667.976 307.998H672.369L675.067 305.711L678.468 305.566L680.452 310.139L693.171 311.906L693.546 307.235L697.757 305.711L697.951 304.041L694.599 299.467L687.132 293.466L691.053 289.897L690.775 288.324L685.862 287.562L683.78 270.985L683.538 267.174L670.215 262.08L664.309 263.411L661.006 267.465L658.077 267.271L657.23 267.985L650.708 267.561L642.479 261.56L639.417 258.208L638.014 258.547L635.484 261.439L631.019 260.592Z" fill="white"/>
<path d="M617.768 249.993L615.07 252.848L605.147 252.558L599.193 248.989L593.384 248.844L586.716 253.562L580.472 253.853L579.904 257.422H572.812L569.981 259.999V261.427L571.687 262.855V264.428L570.973 266.291L571.687 267.864L573.962 266.726L576.237 269.158L575.668 270.876L574.821 272.026L576.092 273.454L582.336 274.736L586.729 272.873V270.163L588.858 270.586L593.965 273.587L599.495 272.728L601.904 270.441L603.465 271.01V273.587H605.594L607.434 270.017L623.601 268.299L630.656 267.44L628.792 264.996L628.756 261.693L630.172 259.999L625.017 255.861L625.295 252.292H622.463L617.768 249.993Z" fill="white"/>
<path d="M633.851 346.837L635.593 352.015V357.073L639.78 360.872L669.283 348.857L669.561 345.554L664.83 337.06L652.959 340.847L646.146 347.55L638.243 342.88L633.851 346.837Z" fill="white"/>
<path d="M665.786 336.685L674.729 331.531L676.314 323.969L674.353 322.844L675.164 314.737L676.87 313.745L678.698 316.612L689.577 322.299V325.457L676.399 344.852L670.336 345.058L665.786 336.685Z" fill="white"/>
<path d="M660.498 317.448L661.55 321.658L673.482 322.711L674.317 314.072L676.616 312.813L677.246 309.656L673.482 310.708L669.295 317.036L660.498 317.448Z" fill="white"/>
<path d="M658.828 310.285L658.198 315.136L660.062 316.552L661.756 316.395L662.385 310.285L660.921 309.232L658.828 310.285Z" fill="white"/>
<path d="M647.525 295.946L644.802 294.47L642.915 296.37L643.12 300.169L647.513 301.851L647.525 295.946Z" fill="white"/>
<path d="M648.384 303.291L656.867 315.112L659.602 317.29L660.824 322.59L673.881 323.618L675.358 324.392L673.894 330.926L665.314 335.984L652.765 339.783L646.073 346.316L638.122 341.682L633.306 345.893L626.602 334.943L622.004 332.838L620.334 330.309V324.828L603.598 304.598L602.968 301.016H607.785L613.642 295.959L613.847 293.43L612.177 291.748L615.529 289.014L622.645 289.437L634.782 299.552L641.946 299.226L642.406 300.992L648.384 303.291Z" fill="white"/>
<path d="M603.211 274.12L602.787 277.193L606.2 278.621L606.054 287.139L609.467 287.066L612.879 284.489L614.162 284.271L621.907 278.112L623.468 269.171L607.991 270.744L606.357 274.325L603.211 274.12Z" fill="white"/>
<path d="M624.557 269.158L622.669 278.487L614.852 284.997L615.348 288.07L622.984 288.59L635.146 298.487L641.947 298.294L642.128 296.007L644.621 293.333L648.106 295.305L648.566 294.87L641.826 285.904L638.631 285.71L634.383 280.254L635.23 276.237L636.525 276.067L636.973 274.289L631.189 268.203L624.557 269.158Z" fill="white"/>
<path d="M605.909 288.215L602.932 298.597L602.799 300.182H607.482L612.722 295.56L612.855 293.805L610.713 291.615L614.549 288.433L613.993 285.481L612.94 285.723L609.745 288.01L605.909 288.215Z" fill="white"/>
<path d="M602.642 278.124L602.714 280.484L601.722 284.065L605.134 284.355L605.352 279.274L602.642 278.124Z" fill="white"/>
<path d="M601.577 284.924L599.665 291.01L602.146 298.306L604.989 287.647V285.36L601.577 284.924Z" fill="white"/>
<path d="M599.023 274.978L600.512 276.055L595.901 280.423L593.699 280.35L592.065 279.201L592.283 277.059L595.623 276.842L599.023 274.978Z" fill="white"/>
<path d="M565.443 120.469L567.887 118.678L567.669 116.67L566.12 115.774L566.338 113.318H567.669V111.975L561.897 110.414L553.245 111.31L552.361 115.109L550.365 114.443L549.033 112.205L544.81 112.423L544.362 116.67L542.366 117.565L541.252 115.327L532.37 122.477L534.149 124.486L530.821 126.047L523.27 141.026L520.608 142.816L520.826 144.16L523.488 145.503L522.822 148.406L518.381 148.177L517.05 146.616L514.17 149.967L512.391 151.31L511.943 154.444L510.394 155.339L506.401 156.235L504.404 162.502L505.735 172.787L507.284 177.481L509.063 179.272L513.057 179.054L518.829 173.464L521.043 169.665L521.709 175.255L525.484 168.552L525.702 149.762L528.776 147.826L529.696 137.456L539.014 124.038L543.455 122.477L545.451 120.021L552.107 121.582L555.435 123.591L556.548 118.001L562.103 114.649L565.443 120.469Z" fill="white"/>
<path d="M481.533 177.264L479.318 180.615L480.202 181.958H485.308V184.197L483.977 185.987L484.861 190.682L487.741 196.272L489.955 201.414L493.501 202.757L495.05 205.443L494.832 207.899L492.618 209.242L492.4 210.356L493.949 211.251L492.618 213.042L489.508 214.385L483.517 213.719L474.187 217.966L471.077 216.405L479.96 211.263L478.846 210.598L474.187 210.15L477.068 205.903L477.515 202.322L481.291 201.874L480.625 194.941L476.184 194.723L474.853 193.162L475.071 188.02L472.409 188.238L475.071 179.296L479.96 175.715L481.533 177.264Z" fill="white"/>
<path d="M472.215 192.255L468.222 192.702L468.004 196.284L470.666 198.075L473.546 197.409L474.659 195.401L472.215 192.255Z" fill="white"/>
<path d="M473.534 198.401L472.433 205.661L462.667 209.242H459.557L457.343 207.681V206.338L462.232 203.205L460.9 200.519L461.118 196.719L465.342 196.937L467.278 192.388L467.024 196.429L470.303 199.03L473.534 198.401Z" fill="white"/>
<path d="M543.975 123.421L546.347 125.611H550.788L553.233 130.306L553.898 138.352L547.908 142.599V146.846L543.685 152.665L541.24 152.883L537.912 158.473L538.13 163.845L543.903 168.092L543.455 170.548L541.24 173.9L537.912 176.804L538.13 186.423L533.024 188.213L531.245 192.013H528.8L527.469 185.31L521.915 176.792L526.477 169.157L526.791 150.294L529.938 148.564L530.7 137.771L539.667 124.934L543.975 123.421Z" fill="white"/>
<path d="M554.951 138.376L557.456 139.477L559.005 142.381L557.456 144.39L549.687 152.883L548.356 157.36L550.135 163.845L556.125 168.322L564.112 164.523L570.549 163.628L576.539 154.009L572.098 143.494L567.875 133.428L568.541 126.942L565.878 126.495L565.189 121.764L561.607 115.92L557.637 118.666L556.076 125.043L551.865 122.514L546.008 121.086L544.701 122.611L546.952 124.643L551.054 124.571L554.358 129.907L554.951 138.376Z" fill="white"/>
<path d="M568.601 180.034L560.312 178.691L560.493 183.325L568.177 188.02L571.324 187.101L571.142 183.567L568.601 180.034Z" fill="white"/>
<path d="M554.915 175.521L553.039 175.461L551.95 176.562L552.736 177.723L554.612 177.844L555.58 176.441L554.915 175.521Z" fill="white"/>
<path d="M554.733 180.458L552.918 180.276L549.651 184.185V186.012L550.74 186.435L552.857 186.496L556.367 183.628L556.851 182.648L554.733 180.458Z" fill="white"/>
<path d="M559.816 184.063L557.214 184.003L553.644 187.415H550.619L550.8 191.686L548.985 195.038L555.52 195.098L557.395 194.856L559.271 197.119L563.567 196.937L567.681 191.698L567.439 188.589L559.816 184.063Z" fill="white"/>
<path d="M559.634 198.087L561.449 201.075L560.723 203.459L560.844 205.346L561.51 207.609L565.261 205.479L569.92 205.6L573.187 206.943H581.477L583.897 201.148L585.349 198.958V197.494L580.146 190.174L575.547 188.347L571.796 187.923L568.528 188.964L568.649 192.255L564.112 197.99L559.634 198.087Z" fill="white"/>
<path d="M560.602 208.335L561.631 210.222L561.873 212.231L561.026 214.179L559.09 217.906L557.456 218.644L555.338 217.724L554.068 217.785L550.982 218.946L547.472 217.906L541.785 213.876L536.218 210.888L533.98 207.476L533.556 199.43L537.912 195.643L543.6 193.755L545.718 193.513L544.871 195.219L545.415 195.885L554.987 196.066L557.044 196.006L560.433 201.196L559.586 203.326L559.949 205.83L560.602 208.335Z" fill="white"/>
<path d="M484.244 244.924H468.827L465.717 243.52L464.216 243.629L462.401 247.404L463.042 251.288L468.936 251.832L469.686 254.313L467.12 268.771L467.229 271.361L471.404 273.623L476.221 273.95L485.853 271.579L490.56 265.65L490.669 259.612L499.019 252.062L499.443 248.723L491.843 248.614L484.244 244.924Z" fill="#EE6C4D"/>
<path d="M463.151 252.473L462.401 262.939L460.259 264.875L460.477 266.061L461.978 268.541L461.009 271.566L462.619 272.111L466.37 271.675L466.152 268.65L468.609 254.627L468.077 252.691L463.151 252.473Z" fill="white"/>
<path d="M499.661 259.697L497.736 260.35L498.16 262.08H500.943L502.117 260.786L499.661 259.697Z" fill="white"/>
<path d="M519.579 255.063L516.372 256.684L516.796 262.939L519.361 263.375L521.285 261.536V255.607L519.579 255.063Z" fill="white"/>
<path d="M519.906 247.295L517.546 249.666L517.328 251.82L519.252 253.006L520.003 252.897L520.426 249.763L519.906 247.295Z" fill="white"/>
<path d="M498.813 213.102L496.139 213.755L490.79 219.575L489.181 219.684L487.039 218.172L485.647 218.498L484.582 221.838L476.765 222.056L476.983 223.786L482.332 227.343L488.539 232.304L488.431 238.233L485.115 244.052L492.291 247.501L499.576 247.718L501.827 245.129L506.425 245.238L507.708 246.424L512.306 246.097L514.666 243.072L511.665 239.515L511.447 237.252L512.088 234.772L510.588 232.618L508.022 233.369L507.696 231.433L513.371 225.177V221.402L509.62 219.249L507.696 218.922L498.813 213.102Z" fill="white"/>
<path d="M510.54 200.482L505.058 203.18L506.219 204.233L506.34 206.931L505.179 206.701L503.896 204.705L500.834 209.557L505.542 210.537L507.296 212.388L508.228 212.412L508.845 208.226L511.81 206.98L510.54 200.482Z" fill="white"/>
<path d="M500.278 210.464L499.503 212.4L507.829 217.893L510.225 218.462L510.309 215.861L508.216 213.513H506.933L505.179 211.517L500.278 210.464Z" fill="white"/>
<path d="M511.81 200.011L516.13 199.309V196.26L519.748 195.667L521.733 197.663L523.827 197.893L527.094 196.478L530.01 197.3L532.576 199.527L532.927 207.863L535.492 211.275L532.116 211.747L526.513 215.268L526.985 216.442L531.995 221.136L531.644 223.483L526.985 225.831L522.665 225.952L521.612 228.178H519.398L518.345 225.831L514.497 224.887L514.376 221.015L511.108 218.789L511.459 215.97L509.245 212.921L509.825 208.928L512.851 207.512L511.81 200.011Z" fill="white"/>
<path d="M518.623 180.192L513.601 185.745L513.42 189.363L515.707 195.328L519.289 194.65L518.841 189.774L521.31 187.016L521.261 184.85L519.519 180.337L518.623 180.192Z" fill="white"/>
<path d="M524.274 190.041L523.149 189.992L521.673 191.347L521.854 193.465L525.351 193.562L525.533 191.166L524.274 190.041Z" fill="white"/>
<path d="M544.907 178.583L542.354 180.603L543.636 183.567L545.899 181.365L544.907 178.583Z" fill="white"/>
<path d="M513.952 226.024L508.676 231.638L508.785 232.207L510.951 231.529L512.899 234.24L516.191 233.078L518.466 234.845L519.398 234.312L522.205 229.908L521.491 229.231L518.72 229.158L517.377 226.411L513.952 226.024Z" fill="white"/>
<path d="M532.733 220.567H536.327H538.094L540.962 222.612L546.274 218.196L541.119 214.518L536.012 212.049L532.515 212.678L527.772 215.728L532.733 220.567Z" fill="white"/>
<path d="M541.7 223.302L542.535 224.04L542.644 225.298L551.877 225.092L558.702 222.152L558.593 219.164L557.286 219.745L555.411 218.74L554.261 218.692L551.236 219.902L547.121 218.91L541.7 223.302Z" fill="white"/>
<path d="M523.294 226.92L522.508 228.553L523.185 229.714L526.005 229.134H528.401L531.003 231.336L536.533 230.332L540.599 227.912L541.64 226.278L541.482 224.173L537.828 221.438L532.927 221.487L532.515 224.27L527.36 226.786L523.294 226.92Z" fill="white"/>
<path d="M542.789 226.29L541.385 228.492L541.494 231.856L543.733 233.006L550.619 233.211L560.215 225.129L560.263 223.338L559.223 222.818L552.289 225.964L542.789 226.29Z" fill="white"/>
<path d="M540.442 229.182L537.368 231.021L531.632 232.28L532.782 235.595L536.799 235.643L540.502 232.546L540.442 229.182Z" fill="white"/>
<path d="M541.434 233.018L537.162 236.539H532.83L532.31 239.588L534.294 240.108L535.286 238.632L536.848 239.999L538.094 244.355L546.649 248.348L547.497 247.38L538.82 238.426L539.703 236.793L547.944 236.478L548.779 233.852L543.406 234.01L541.434 233.018Z" fill="white"/>
<path d="M540.442 237.591L539.994 238.329L548.114 246.702L551.091 242.322L550.982 240.592L548.38 237.434L540.442 237.591Z" fill="white"/>
<path d="M513.178 235.22L512.427 237.119L512.633 239.188L515.525 242.564L520.075 242.407L530.119 254.071L536.388 255.885L540.091 259.382L540.974 267.356L542.959 266.194L544.677 261.85L544.253 258.729L547.194 258.463L547.618 256.696L539.328 252.727L531.463 244.996L528.328 240.374L527.566 235.982L531.571 235.026L530.543 232.134L528.086 230.065L525.969 229.969L523.016 230.779L520.233 234.675L518.551 235.788L515.949 234.191L513.178 235.22Z" fill="white"/>
<path d="M537.586 266.726L535.831 265.783L529.841 266.726L530.047 268.348L535.432 271.058L536.242 271.941L537.658 272.147L537.586 266.726Z" fill="white"/>
<path d="M537.791 275.74L535.77 276.152L535.843 278.39L537.658 278.995L538.469 278.318L537.791 275.74Z" fill="white"/>
<path d="M565.576 206.387L562.066 208.359L562.938 212.086L559.695 218.922L559.719 221.935L561.243 222.903L571.021 223.387L573.756 221.124L576.685 222.104L580.884 227.706L577.81 233.223L581.465 234.288L586.245 228.783L588.979 229.279L591.521 231.045L589.282 233.998L592.307 238.716H595.526L597.184 235.571L600.597 234.881L600.693 232.328L594.352 231.348L594.546 228.601H600.693L607.325 223.29L610.253 220.737L610.737 212.679L597.668 211.505L592.307 203.943L588.604 202.672L584.115 202.866L582.094 207.863L572.897 207.984L569.908 206.605L565.576 206.387Z" fill="white"/>
<path d="M571.844 224.004L575.596 229.775L575.281 233.042L576.624 233.102L579.807 227.718L575.983 222.975L573.817 222.08L571.844 224.004Z" fill="white"/>
<path d="M561.473 223.87L561.159 225.661L554.152 231.493L560.009 240.084L563.761 242.709H570.513L572.74 240.846L575.729 240.459L577.955 241.802L581.9 237.313L581.138 235.062L577.132 234.034L574.397 233.901L574.531 230.053L570.9 224.342L561.473 223.87Z" fill="white"/>
<path d="M552.667 247.643L552.612 246.511L551.014 244.269L548.429 247.925L548.937 249.461L551.043 249.848L552.667 247.643Z" fill="white"/>
<path d="M553.451 232.266L550.97 234.131H549.759L548.937 236.695L551.865 240.096L552.059 242.794L551.646 243.378L553.626 246.159L553.695 247.634L555.12 249.014L559.767 247.599L559.379 240.991L553.451 232.266Z" fill="white"/>
<path d="M560.578 241.765L560.772 247.791L562.805 252.026L570.44 252.159L573.877 249.727L577.253 248.384L576.43 244.536L577.193 242.479L575.474 241.584L573.115 241.778L571.263 243.641L563.494 243.701L560.578 241.765Z" fill="white"/>
<path d="M551.599 250.683V256.26L553.196 259.273L554.346 259.14L556.318 255.547L555.169 253.937L554.721 249.957L553.196 248.541L551.599 250.683Z" fill="white"/>
<path d="M559.949 248.565L555.871 249.908L556.064 253.369L557.02 254.591L561.861 252.34L559.949 248.565Z" fill="white"/>
<path d="M554.854 260.169L554.721 261.778L560.324 264.597L562.998 265.625L561.594 267.102L558.472 267.416L558.025 268.832L559.102 271.264L562.599 273.127L564.124 273.26L564.317 269.086L566.604 266.327L560.36 258.947L561.183 256.442L562.647 256.381L564.874 258.172L566.278 257.47L566.725 254.966L573.284 255.026L573.538 251.179L570.803 253.103L562.78 252.909L557.565 255.607L554.854 260.169Z" fill="white"/>
<path d="M574.591 250.61L574.398 254.905L578.149 253.756L579.867 252.607L579.359 250.743L577.58 249.328L574.591 250.61Z" fill="white"/>
<path d="M567.016 275.886L568.988 275.946L569.811 277.168H572.679L574.591 276.467L575.232 277.241L573.962 278.911L568.359 279.104L567.343 277.761L566.266 277.12L567.016 275.886Z" fill="white"/>
</svg>
