<svg width="52" height="24" viewBox="0 0 52 24" fill="none" xmlns="http://www.w3.org/2000/svg">
<path d="M21.248 0.344V0.983999C20.8213 1.13333 20.352 1.47467 19.84 2.008C19.328 2.52 18.8693 3.33067 18.464 4.44L11.456 23.096C11.328 23.096 11.1893 23.0853 11.04 23.064C10.912 23.064 10.7733 23.064 10.624 23.064C10.4747 23.064 10.3253 23.064 10.176 23.064C10.048 23.0853 9.92 23.096 9.792 23.096L1.76 3.032C1.44 2.24267 1.088 1.70933 0.704 1.432C0.341333 1.15467 0 1.00533 -0.32 0.983999V0.344C0.234667 0.365333 0.906667 0.386666 1.696 0.407999C2.50667 0.429332 3.296 0.439999 4.064 0.439999C5.00267 0.439999 5.87733 0.429332 6.688 0.407999C7.52 0.386666 8.18133 0.365333 8.672 0.344V0.983999C7.968 1.00533 7.424 1.09067 7.04 1.24C6.67733 1.368 6.47467 1.624 6.432 2.008C6.38933 2.37067 6.50667 2.92533 6.784 3.672L12.672 18.808L12.064 19.544L16.864 6.744C17.3973 5.31467 17.664 4.184 17.664 3.352C17.664 2.52 17.4293 1.92267 16.96 1.56C16.4907 1.19733 15.8187 1.00533 14.944 0.983999V0.344C15.648 0.365333 16.3093 0.386666 16.928 0.407999C17.568 0.429332 18.1973 0.439999 18.816 0.439999C19.328 0.439999 19.776 0.429332 20.16 0.407999C20.5653 0.386666 20.928 0.365333 21.248 0.344ZM31.4328 0.344V0.983999C30.7501 1.00533 30.2274 1.09067 29.8648 1.24C29.5234 1.368 29.2888 1.624 29.1608 2.008C29.0328 2.37067 28.9688 2.94666 28.9688 3.736V19.608C28.9688 20.376 29.0328 20.952 29.1608 21.336C29.2888 21.72 29.5234 21.976 29.8648 22.104C30.2274 22.232 30.7501 22.3173 31.4328 22.36V23C30.8994 22.9573 30.2168 22.936 29.3848 22.936C28.5528 22.9147 27.7101 22.904 26.8568 22.904C25.8968 22.904 25.0008 22.9147 24.1688 22.936C23.3368 22.936 22.6541 22.9573 22.1208 23V22.36C22.8248 22.3173 23.3474 22.232 23.6888 22.104C24.0514 21.976 24.2861 21.72 24.3928 21.336C24.5208 20.952 24.5848 20.376 24.5848 19.608V3.736C24.5848 2.94666 24.5208 2.37067 24.3928 2.008C24.2861 1.624 24.0514 1.368 23.6888 1.24C23.3474 1.09067 22.8248 1.00533 22.1208 0.983999V0.344C22.6541 0.365333 23.3368 0.386666 24.1688 0.407999C25.0008 0.429332 25.8968 0.439999 26.8568 0.439999C27.7101 0.439999 28.5528 0.429332 29.3848 0.407999C30.2168 0.386666 30.8994 0.365333 31.4328 0.344ZM33.777 0.344C34.3103 0.365333 34.993 0.386666 35.825 0.407999C36.657 0.429332 37.489 0.439999 38.321 0.439999C39.3663 0.439999 40.3583 0.429332 41.297 0.407999C42.2357 0.386666 42.897 0.375999 43.281 0.375999C46.1397 0.375999 48.2623 0.962666 49.649 2.136C51.057 3.30933 51.761 4.824 51.761 6.68C51.761 7.448 51.6223 8.25867 51.345 9.112C51.0677 9.944 50.5877 10.7227 49.905 11.448C49.2223 12.152 48.2837 12.728 47.089 13.176C45.9157 13.624 44.4117 13.848 42.577 13.848H39.377V13.208H42.257C43.601 13.208 44.625 12.92 45.329 12.344C46.0543 11.768 46.5343 11.0107 46.769 10.072C47.025 9.13333 47.153 8.12 47.153 7.032C47.153 5.00533 46.8223 3.49067 46.161 2.488C45.4997 1.48533 44.3583 0.983999 42.737 0.983999C41.8623 0.983999 41.2863 1.16533 41.009 1.528C40.753 1.89067 40.625 2.62667 40.625 3.736V19.48C40.625 20.2907 40.7103 20.8987 40.881 21.304C41.0517 21.7093 41.3823 21.976 41.873 22.104C42.3637 22.232 43.0677 22.3067 43.985 22.328V23C43.3663 22.9573 42.5663 22.936 41.585 22.936C40.6037 22.9147 39.5903 22.904 38.545 22.904C37.649 22.904 36.785 22.9147 35.953 22.936C35.121 22.936 34.3957 22.9573 33.777 23V22.36C34.481 22.3173 35.0037 22.232 35.345 22.104C35.7077 21.976 35.9423 21.72 36.049 21.336C36.177 20.952 36.241 20.376 36.241 19.608V3.736C36.241 2.94666 36.177 2.37067 36.049 2.008C35.9423 1.624 35.7077 1.368 35.345 1.24C35.0037 1.09067 34.481 1.00533 33.777 0.983999V0.344Z" fill="#222D56"/>
</svg>
