<svg width="153" height="43" viewBox="0 0 153 43" fill="none" xmlns="http://www.w3.org/2000/svg">
<g clip-path="url(#clip0_200_147)">
<path d="M20.384 12.344V12.984C19.9787 13.0693 19.5413 13.3147 19.072 13.72C18.624 14.1253 18.2187 14.808 17.856 15.768L10.336 35.16C10.2933 35.16 10.2507 35.16 10.208 35.16C10.1653 35.16 10.1227 35.16 10.08 35.16C10.0373 35.16 9.99467 35.16 9.952 35.16C9.90933 35.16 9.86667 35.16 9.824 35.16L2.016 15.032C1.696 14.2213 1.33333 13.688 0.928 13.432C0.522667 13.1547 0.149333 13.0053 -0.192 12.984V12.344C0.234667 12.3653 0.757333 12.3867 1.376 12.408C2.016 12.4293 2.63467 12.44 3.232 12.44C4.064 12.44 4.84267 12.4293 5.568 12.408C6.29333 12.3867 6.88 12.3653 7.328 12.344V12.984C6.60267 13.0053 6.048 13.0907 5.664 13.24C5.30133 13.3893 5.09867 13.656 5.056 14.04C5.03467 14.4027 5.16267 14.9467 5.44 15.672L11.392 31.448L10.88 31.992L16.448 17.528C16.896 16.376 17.1093 15.48 17.088 14.84C17.0667 14.1787 16.8213 13.7093 16.352 13.432C15.8827 13.1547 15.2 13.0053 14.304 12.984V12.344C14.9227 12.3653 15.552 12.3867 16.192 12.408C16.832 12.4293 17.4293 12.44 17.984 12.44C18.5387 12.44 18.9973 12.4293 19.36 12.408C19.7227 12.3867 20.064 12.3653 20.384 12.344ZM29.6603 12.344V12.984C28.9349 13.0053 28.3803 13.0907 27.9963 13.24C27.6336 13.368 27.3883 13.624 27.2603 14.008C27.1323 14.3707 27.0683 14.9467 27.0683 15.736V31.608C27.0683 32.376 27.1323 32.952 27.2603 33.336C27.3883 33.72 27.6336 33.976 27.9963 34.104C28.3803 34.232 28.9349 34.3173 29.6603 34.36V35C29.1696 34.9573 28.5509 34.936 27.8043 34.936C27.0789 34.9147 26.3429 34.904 25.5963 34.904C24.7643 34.904 23.9856 34.9147 23.2603 34.936C22.5349 34.936 21.9483 34.9573 21.5003 35V34.36C22.2256 34.3173 22.7696 34.232 23.1323 34.104C23.5163 33.976 23.7723 33.72 23.9003 33.336C24.0283 32.952 24.0923 32.376 24.0923 31.608V15.736C24.0923 14.9467 24.0283 14.3707 23.9003 14.008C23.7723 13.624 23.5163 13.368 23.1323 13.24C22.7696 13.0907 22.2256 13.0053 21.5003 12.984V12.344C21.9483 12.3653 22.5349 12.3867 23.2603 12.408C23.9856 12.4293 24.7643 12.44 25.5963 12.44C26.3429 12.44 27.0789 12.4293 27.8043 12.408C28.5509 12.3867 29.1696 12.3653 29.6603 12.344ZM32.344 12.344C32.792 12.3653 33.3787 12.3867 34.104 12.408C34.8293 12.4293 35.544 12.44 36.248 12.44C37.2507 12.44 38.2107 12.4293 39.128 12.408C40.0453 12.3867 40.696 12.376 41.08 12.376C43.6613 12.376 45.592 12.9627 46.872 14.136C48.152 15.3093 48.792 16.824 48.792 18.68C48.792 19.448 48.664 20.2587 48.408 21.112C48.152 21.944 47.704 22.7227 47.064 23.448C46.4453 24.152 45.592 24.728 44.504 25.176C43.416 25.624 42.04 25.848 40.376 25.848H37.304V25.208H40.056C41.5707 25.208 42.7227 24.92 43.512 24.344C44.3227 23.768 44.8667 23.0107 45.144 22.072C45.4427 21.1333 45.592 20.12 45.592 19.032C45.592 17.0053 45.1867 15.4907 44.376 14.488C43.5867 13.4853 42.2213 12.984 40.28 12.984C39.2987 12.984 38.6587 13.1653 38.36 13.528C38.0613 13.8907 37.912 14.6267 37.912 15.736V31.608C37.912 32.376 37.9867 32.952 38.136 33.336C38.3067 33.72 38.6267 33.976 39.096 34.104C39.5653 34.232 40.248 34.3173 41.144 34.36V35C40.5893 34.9573 39.8853 34.936 39.032 34.936C38.1787 34.9147 37.3147 34.904 36.44 34.904C35.608 34.904 34.8293 34.9147 34.104 34.936C33.3787 34.936 32.792 34.9573 32.344 35V34.36C33.0693 34.3173 33.6133 34.232 33.976 34.104C34.36 33.976 34.616 33.72 34.744 33.336C34.872 32.952 34.936 32.376 34.936 31.608V15.736C34.936 14.9467 34.872 14.3707 34.744 14.008C34.616 13.624 34.36 13.368 33.976 13.24C33.6133 13.0907 33.0693 13.0053 32.344 12.984V12.344Z" fill="#222D56"/>
<path d="M61.872 11.896C63.28 11.896 64.432 12.1093 65.328 12.536C66.2453 12.9413 67.056 13.4213 67.76 13.976C68.1867 14.296 68.5067 14.3387 68.72 14.104C68.9547 13.848 69.1147 13.2613 69.2 12.344H69.936C69.8933 13.1333 69.8613 14.0933 69.84 15.224C69.8187 16.3547 69.808 17.848 69.808 19.704H69.072C68.9227 18.7867 68.784 18.0613 68.656 17.528C68.528 16.9733 68.368 16.504 68.176 16.12C68.0053 15.736 67.7707 15.352 67.472 14.968C66.8107 14.0933 65.9787 13.464 64.976 13.08C63.9733 12.6747 62.9173 12.472 61.808 12.472C60.7627 12.472 59.8133 12.7387 58.96 13.272C58.128 13.784 57.4027 14.5307 56.784 15.512C56.1867 16.4933 55.7173 17.6773 55.376 19.064C55.056 20.4507 54.896 22.008 54.896 23.736C54.896 25.528 55.0773 27.1173 55.44 28.504C55.8027 29.8693 56.304 31.0213 56.944 31.96C57.6053 32.8987 58.3733 33.6133 59.248 34.104C60.144 34.5733 61.104 34.808 62.128 34.808C63.088 34.808 64.0907 34.616 65.136 34.232C66.1813 33.848 67.0027 33.2293 67.6 32.376C68.0693 31.7573 68.3893 31.0853 68.56 30.36C68.752 29.6347 68.9227 28.6213 69.072 27.32H69.808C69.808 29.2613 69.8187 30.8293 69.84 32.024C69.8613 33.1973 69.8933 34.1893 69.936 35H69.2C69.1147 34.0827 68.9653 33.5067 68.752 33.272C68.56 33.0373 68.2293 33.0693 67.76 33.368C66.9707 33.9227 66.128 34.4133 65.232 34.84C64.3573 35.2453 63.2267 35.448 61.84 35.448C59.8133 35.448 58.032 34.9893 56.496 34.072C54.9813 33.1547 53.7973 31.832 52.944 30.104C52.112 28.376 51.696 26.296 51.696 23.864C51.696 21.4747 52.1333 19.384 53.008 17.592C53.8827 15.8 55.0773 14.4027 56.592 13.4C58.128 12.3973 59.888 11.896 61.872 11.896ZM77.5033 35.224C76.6286 35.224 75.8713 35.064 75.2313 34.744C74.5913 34.4027 74.1006 33.9333 73.7593 33.336C73.4393 32.7387 73.2793 32.0453 73.2793 31.256C73.2793 30.3173 73.4926 29.5493 73.9193 28.952C74.3673 28.3547 74.9326 27.8747 75.6153 27.512C76.2979 27.1493 77.0126 26.8507 77.7593 26.616C78.5273 26.36 79.2526 26.1253 79.9353 25.912C80.6179 25.6773 81.1726 25.4107 81.5993 25.112C82.0473 24.8133 82.2713 24.4187 82.2713 23.928V21.944C82.2713 21.048 82.1326 20.3653 81.8553 19.896C81.5993 19.4267 81.2473 19.1173 80.7993 18.968C80.3513 18.7973 79.8499 18.712 79.2953 18.712C78.7619 18.712 78.1859 18.7867 77.5673 18.936C76.9699 19.0853 76.4899 19.3947 76.1273 19.864C76.5326 19.9493 76.8846 20.1627 77.1833 20.504C77.4819 20.8453 77.6313 21.2827 77.6313 21.816C77.6313 22.3493 77.4606 22.776 77.1193 23.096C76.7779 23.3947 76.3406 23.544 75.8073 23.544C75.1886 23.544 74.7299 23.352 74.4313 22.968C74.1539 22.5627 74.0153 22.1147 74.0153 21.624C74.0153 21.0693 74.1539 20.6213 74.4313 20.28C74.7086 19.9387 75.0606 19.6187 75.4873 19.32C75.9779 18.9787 76.6073 18.6907 77.3753 18.456C78.1646 18.2 79.0499 18.072 80.0312 18.072C80.9059 18.072 81.6526 18.1787 82.2713 18.392C82.8899 18.584 83.4019 18.872 83.8073 19.256C84.3619 19.768 84.7246 20.3973 84.8953 21.144C85.0659 21.8693 85.1513 22.744 85.1513 23.768V32.664C85.1513 33.1973 85.2259 33.5813 85.3753 33.816C85.5459 34.0507 85.8019 34.168 86.1433 34.168C86.3779 34.168 86.6019 34.1147 86.8153 34.008C87.0286 33.9013 87.2846 33.7307 87.5833 33.496L87.9353 34.04C87.4873 34.3813 87.0606 34.6693 86.6553 34.904C86.2499 35.1173 85.7059 35.224 85.0233 35.224C84.4046 35.224 83.8926 35.1173 83.4873 34.904C83.0819 34.6907 82.7726 34.3813 82.5593 33.976C82.3673 33.5493 82.2713 33.016 82.2713 32.376C81.6953 33.336 81.0019 34.0507 80.1913 34.52C79.4019 34.9893 78.5059 35.224 77.5033 35.224ZM78.6553 33.944C79.3593 33.944 80.0099 33.7413 80.6073 33.336C81.2259 32.9307 81.7806 32.3227 82.2713 31.512V25.24C82.0153 25.6027 81.6419 25.912 81.1513 26.168C80.6606 26.4027 80.1273 26.648 79.5513 26.904C78.9753 27.1387 78.4206 27.4267 77.8873 27.768C77.3753 28.088 76.9486 28.5147 76.6073 29.048C76.2659 29.5813 76.0953 30.2747 76.0953 31.128C76.0953 31.9813 76.3193 32.664 76.7673 33.176C77.2366 33.688 77.8659 33.944 78.6553 33.944ZM93.9848 18.168V37.816C93.9848 38.7333 94.2514 39.3413 94.7848 39.64C95.3394 39.96 96.0968 40.12 97.0568 40.12V40.792C96.5874 40.7707 95.9368 40.7387 95.1048 40.696C94.2728 40.6747 93.3874 40.664 92.4488 40.664C91.7874 40.664 91.1261 40.6747 90.4648 40.696C89.8248 40.7387 89.3341 40.7707 88.9928 40.792V40.12C89.7608 40.12 90.3048 39.9813 90.6248 39.704C90.9448 39.4267 91.1048 38.904 91.1048 38.136V22.008C91.1048 21.048 90.9341 20.344 90.5928 19.896C90.2514 19.4267 89.6114 19.192 88.6728 19.192V18.52C89.3554 18.584 90.0168 18.616 90.6568 18.616C91.2754 18.616 91.8621 18.584 92.4168 18.52C92.9928 18.4347 93.5154 18.3173 93.9848 18.168ZM99.1048 18.072C100.235 18.072 101.249 18.3813 102.145 19C103.041 19.5973 103.745 20.4827 104.257 21.656C104.79 22.8293 105.057 24.28 105.057 26.008C105.057 27.16 104.918 28.3013 104.641 29.432C104.363 30.5413 103.926 31.5547 103.329 32.472C102.753 33.368 101.995 34.0933 101.057 34.648C100.139 35.1813 99.0301 35.448 97.7288 35.448C96.7261 35.448 95.8514 35.2133 95.1048 34.744C94.3794 34.2747 93.8888 33.7093 93.6328 33.048L93.9528 32.6C94.2514 33.1973 94.6781 33.6987 95.2328 34.104C95.8088 34.5093 96.5234 34.712 97.3767 34.712C98.5714 34.712 99.4994 34.3387 100.161 33.592C100.822 32.8453 101.281 31.8533 101.537 30.616C101.814 29.3573 101.953 27.9707 101.953 26.456C101.953 24.7493 101.814 23.352 101.537 22.264C101.259 21.176 100.843 20.3653 100.289 19.832C99.7341 19.2987 99.0514 19.032 98.2408 19.032C97.1954 19.032 96.2461 19.4693 95.3928 20.344C94.5394 21.1973 93.9954 22.4987 93.7608 24.248L93.3768 23.8C93.6114 21.9867 94.2514 20.5787 95.2968 19.576C96.3634 18.5733 97.6328 18.072 99.1048 18.072ZM111.139 10.52C111.693 10.52 112.173 10.7227 112.579 11.128C112.984 11.5333 113.187 12.0133 113.187 12.568C113.187 13.1227 112.984 13.6027 112.579 14.008C112.173 14.4133 111.693 14.616 111.139 14.616C110.584 14.616 110.104 14.4133 109.699 14.008C109.293 13.6027 109.091 13.1227 109.091 12.568C109.091 12.0133 109.293 11.5333 109.699 11.128C110.104 10.7227 110.584 10.52 111.139 10.52ZM112.803 18.168V32.024C112.803 32.92 112.984 33.528 113.347 33.848C113.731 34.168 114.36 34.328 115.235 34.328V35C114.872 34.9787 114.317 34.9573 113.571 34.936C112.845 34.8933 112.109 34.872 111.363 34.872C110.637 34.872 109.901 34.8933 109.155 34.936C108.408 34.9573 107.853 34.9787 107.491 35V34.328C108.365 34.328 108.984 34.168 109.347 33.848C109.731 33.528 109.923 32.92 109.923 32.024V22.008C109.923 21.048 109.752 20.344 109.411 19.896C109.069 19.4267 108.429 19.192 107.491 19.192V18.52C108.173 18.584 108.835 18.616 109.475 18.616C110.093 18.616 110.68 18.584 111.235 18.52C111.811 18.4347 112.333 18.3173 112.803 18.168ZM122.018 13.208V18.552H126.754V19.192H122.018V31.576C122.018 32.5787 122.199 33.2827 122.562 33.688C122.924 34.0933 123.426 34.296 124.066 34.296C124.706 34.296 125.26 34.04 125.73 33.528C126.199 32.9947 126.604 32.1093 126.946 30.872L127.586 31.032C127.372 32.2693 126.946 33.3147 126.306 34.168C125.687 35.0213 124.727 35.448 123.426 35.448C122.7 35.448 122.103 35.352 121.634 35.16C121.164 34.9893 120.748 34.7333 120.386 34.392C119.916 33.9013 119.586 33.3147 119.394 32.632C119.223 31.9493 119.138 31.0427 119.138 29.912V19.192H116.066V18.552H119.138V13.656C119.671 13.6347 120.183 13.592 120.674 13.528C121.164 13.464 121.612 13.3573 122.018 13.208ZM132.722 35.224C131.847 35.224 131.09 35.064 130.45 34.744C129.81 34.4027 129.319 33.9333 128.978 33.336C128.658 32.7387 128.498 32.0453 128.498 31.256C128.498 30.3173 128.711 29.5493 129.138 28.952C129.586 28.3547 130.151 27.8747 130.834 27.512C131.517 27.1493 132.231 26.8507 132.978 26.616C133.746 26.36 134.471 26.1253 135.154 25.912C135.837 25.6773 136.391 25.4107 136.818 25.112C137.266 24.8133 137.49 24.4187 137.49 23.928V21.944C137.49 21.048 137.351 20.3653 137.074 19.896C136.818 19.4267 136.466 19.1173 136.018 18.968C135.57 18.7973 135.069 18.712 134.514 18.712C133.981 18.712 133.405 18.7867 132.786 18.936C132.189 19.0853 131.709 19.3947 131.346 19.864C131.751 19.9493 132.103 20.1627 132.402 20.504C132.701 20.8453 132.85 21.2827 132.85 21.816C132.85 22.3493 132.679 22.776 132.338 23.096C131.997 23.3947 131.559 23.544 131.026 23.544C130.407 23.544 129.949 23.352 129.65 22.968C129.373 22.5627 129.234 22.1147 129.234 21.624C129.234 21.0693 129.373 20.6213 129.65 20.28C129.927 19.9387 130.279 19.6187 130.706 19.32C131.197 18.9787 131.826 18.6907 132.594 18.456C133.383 18.2 134.269 18.072 135.25 18.072C136.125 18.072 136.871 18.1787 137.49 18.392C138.109 18.584 138.621 18.872 139.026 19.256C139.581 19.768 139.943 20.3973 140.114 21.144C140.285 21.8693 140.37 22.744 140.37 23.768V32.664C140.37 33.1973 140.445 33.5813 140.594 33.816C140.765 34.0507 141.021 34.168 141.362 34.168C141.597 34.168 141.821 34.1147 142.034 34.008C142.247 33.9013 142.503 33.7307 142.802 33.496L143.154 34.04C142.706 34.3813 142.279 34.6693 141.874 34.904C141.469 35.1173 140.925 35.224 140.242 35.224C139.623 35.224 139.111 35.1173 138.706 34.904C138.301 34.6907 137.991 34.3813 137.778 33.976C137.586 33.5493 137.49 33.016 137.49 32.376C136.914 33.336 136.221 34.0507 135.41 34.52C134.621 34.9893 133.725 35.224 132.722 35.224ZM133.874 33.944C134.578 33.944 135.229 33.7413 135.826 33.336C136.445 32.9307 136.999 32.3227 137.49 31.512V25.24C137.234 25.6027 136.861 25.912 136.37 26.168C135.879 26.4027 135.346 26.648 134.77 26.904C134.194 27.1387 133.639 27.4267 133.106 27.768C132.594 28.088 132.167 28.5147 131.826 29.048C131.485 29.5813 131.314 30.2747 131.314 31.128C131.314 31.9813 131.538 32.664 131.986 33.176C132.455 33.688 133.085 33.944 133.874 33.944ZM149.204 9.912V32.024C149.204 32.92 149.385 33.528 149.748 33.848C150.132 34.168 150.761 34.328 151.635 34.328V35C151.273 34.9787 150.718 34.9573 149.972 34.936C149.246 34.8933 148.51 34.872 147.764 34.872C147.038 34.872 146.302 34.8933 145.556 34.936C144.809 34.9573 144.254 34.9787 143.892 35V34.328C144.766 34.328 145.385 34.168 145.748 33.848C146.132 33.528 146.324 32.92 146.324 32.024V13.752C146.324 12.792 146.153 12.088 145.812 11.64C145.47 11.1707 144.83 10.936 143.892 10.936V10.264C144.574 10.328 145.236 10.36 145.876 10.36C146.494 10.36 147.081 10.328 147.636 10.264C148.212 10.1787 148.734 10.0613 149.204 9.912Z" fill="#8E8E8E"/>
</g>
<defs>
<clipPath id="clip0_200_147">
<rect width="153" height="43" fill="white"/>
</clipPath>
</defs>
</svg>
