<svg width="165" height="38" viewBox="0 0 165 38" fill="none" xmlns="http://www.w3.org/2000/svg">
<g clip-path="url(#clip0_200_147)">
<path d="M11.4062 30.7969L3.23438 11.8594L2.51562 10.2344C2.27604 9.66146 2.06771 9.30208 1.89062 9.15625C1.72396 9 1.41667 8.90625 0.96875 8.875L0.296875 8.82812L0 8.8125V7.375H10.0312V8.8125L9.73438 8.82812C9.32812 8.85938 9.05729 8.875 8.92188 8.875C8.25521 8.875 7.92188 9.08333 7.92188 9.5C7.92188 9.8125 8.1875 10.599 8.71875 11.8594L13.8906 24.0469L18.8906 11.875C18.9948 11.625 19.1198 11.2604 19.2656 10.7812C19.4323 10.2604 19.5521 9.89583 19.625 9.6875C19.6562 9.5625 19.6719 9.46354 19.6719 9.39062C19.6719 9.02604 19.349 8.84375 18.7031 8.84375H18.0625C17.9792 8.84375 17.901 8.83854 17.8281 8.82812L17.5469 8.8125V7.375H24.0938V8.8125L23.8125 8.82812C23.5208 8.84896 23.2969 8.86458 23.1406 8.875C22.6823 8.89583 22.375 8.96354 22.2188 9.07812C22.0625 9.19271 21.8854 9.48438 21.6875 9.95312L20.8281 11.8594L12.9688 30.7969H11.4062ZM34.5938 30.5H24.7656V29.0469L25.0625 29.0312C26.0521 28.9688 26.651 28.8646 26.8594 28.7188C27.0781 28.5625 27.1875 28.1615 27.1875 27.5156L27.2656 25.9688V11.8906L27.1875 10.3594C27.1875 9.70312 27.0885 9.30729 26.8906 9.17188C26.6927 9.02604 26.0833 8.91146 25.0625 8.82812L24.7656 8.8125V7.375H34.5938V8.8125L34.3125 8.82812C33.2812 8.91146 32.6667 9.02604 32.4688 9.17188C32.2708 9.30729 32.1719 9.70312 32.1719 10.3594L32.0938 11.8906V25.9688L32.1719 27.5156C32.1719 28.1615 32.276 28.5625 32.4844 28.7188C32.7031 28.8646 33.3125 28.9688 34.3125 29.0312L34.5938 29.0469V30.5ZM43.0781 21.0312V25.9688C43.0781 27.1979 43.1719 27.9948 43.3594 28.3594C43.5469 28.7135 43.9688 28.9115 44.625 28.9531L45.6875 29.0312L45.9844 29.0469V30.5H35.9531V29.0469L36.25 29.0312C37.2396 28.9688 37.8385 28.8646 38.0469 28.7188C38.2656 28.5625 38.375 28.1615 38.375 27.5156L38.4531 25.9688V11.8906L38.375 10.3594C38.375 9.70312 38.276 9.30729 38.0781 9.17188C37.8802 9.02604 37.2708 8.91146 36.25 8.82812L35.9531 8.8125V7.375H43.0781L44.5 7.34375L46.0625 7.29688L47.3281 7.26562C51.9115 7.26562 54.2031 9.3125 54.2031 13.4062C54.2031 18.4896 50.974 21.0312 44.5156 21.0312H43.0781ZM43.0781 19.4844H44C47.5417 19.4844 49.3125 17.5729 49.3125 13.75C49.3125 10.5208 47.7969 8.90625 44.7656 8.90625H43.0781V19.4844Z" fill="#222D56"/>
<path d="M75.4219 29.7656C73.3281 30.974 70.8906 31.5781 68.1094 31.5781C64.5573 31.5781 61.7552 30.4896 59.7031 28.3125C57.6615 26.1354 56.6406 23.1615 56.6406 19.3906C56.6406 15.5677 57.625 12.599 59.5938 10.4844C61.5625 8.35938 64.3229 7.29688 67.875 7.29688C69.6875 7.29688 72.0677 7.68229 75.0156 8.45312V12.875H73.0938L73.0781 12.5625C73.0677 12.25 73.0573 11.9427 73.0469 11.6406C73.0469 10.6198 72.5729 9.81771 71.625 9.23438C70.6771 8.64062 69.3854 8.34375 67.75 8.34375C65.4062 8.34375 63.5365 9.34375 62.1406 11.3438C60.7448 13.3438 60.0469 16.0156 60.0469 19.3594C60.0469 22.7135 60.8646 25.3333 62.5 27.2188C64.1354 29.0938 66.4115 30.0312 69.3281 30.0312C71.2344 30.0312 73.2656 29.4427 75.4219 28.2656V29.7656ZM89.2812 28.6719C87.4479 30.4844 85.6354 31.3906 83.8438 31.3906C82.4062 31.3906 81.2083 30.9375 80.25 30.0312C79.2917 29.1146 78.8125 27.9688 78.8125 26.5938C78.8125 24.9896 79.4375 23.6875 80.6875 22.6875C82.1146 21.5417 84.5312 20.9688 87.9375 20.9688H88.5781V18.8594C88.5781 16.1823 87.5625 14.8438 85.5312 14.8438C84.5833 14.8438 83.7448 15.1354 83.0156 15.7188C82.5885 16.0729 82.3177 16.7969 82.2031 17.8906L82.1875 18.1875H80.0938V15.0781C82.2604 14.1302 84.2708 13.6562 86.125 13.6562C89.8125 13.6562 91.6562 15.349 91.6562 18.7344V26.2969C91.6562 27.651 91.7708 28.6042 92 29.1562C92.2396 29.7083 92.651 29.9844 93.2344 29.9844C93.4427 29.9844 93.7188 29.9375 94.0625 29.8438L94.1562 31C93.4167 31.2604 92.7552 31.3906 92.1719 31.3906C90.651 31.3906 89.6875 30.4844 89.2812 28.6719ZM88.5781 28.3281V21.9375H87.8594C86.0469 21.9375 84.6302 22.3125 83.6094 23.0625C82.5885 23.8125 82.0781 24.8438 82.0781 26.1562C82.0781 27.1354 82.3958 27.9479 83.0312 28.5938C83.6667 29.2396 84.4583 29.5625 85.4062 29.5625C86.3021 29.5625 87.3594 29.151 88.5781 28.3281ZM101.172 29.0781V33.125C101.172 34.5417 101.286 35.3802 101.516 35.6406C101.745 35.9115 102.5 36.0938 103.781 36.1875L104.078 36.2031V37.1719H95.2031V36.2031L95.5 36.1875C96.7604 36.0938 97.5052 35.9115 97.7344 35.6406C97.974 35.3698 98.0938 34.5312 98.0938 33.125V18.0781C98.0938 16.6719 97.974 15.8333 97.7344 15.5625C97.5052 15.2917 96.7604 15.1094 95.5 15.0156L95.2031 15V14.0312H101.172V17.2188C101.943 16.0312 102.823 15.1406 103.812 14.5469C104.812 13.9531 105.922 13.6562 107.141 13.6562C109.057 13.6562 110.583 14.4115 111.719 15.9219C112.854 17.4323 113.422 19.4635 113.422 22.0156C113.422 24.849 112.771 27.1198 111.469 28.8281C110.167 30.5365 108.438 31.3906 106.281 31.3906C105.292 31.3906 104.37 31.1979 103.516 30.8125C102.661 30.4271 101.88 29.849 101.172 29.0781ZM101.172 27.8594C101.995 28.4635 102.797 28.9167 103.578 29.2188C104.359 29.5208 105.125 29.6719 105.875 29.6719C107.302 29.6719 108.37 29.1042 109.078 27.9688C109.786 26.8333 110.141 25.1302 110.141 22.8594C110.141 20.4531 109.797 18.651 109.109 17.4531C108.422 16.2448 107.385 15.6406 106 15.6406C105.073 15.6406 104.208 15.8646 103.406 16.3125C102.604 16.75 101.859 17.4115 101.172 18.2969V27.8594ZM121.703 14.0312V26.9531C121.703 28.3698 121.818 29.2135 122.047 29.4844C122.276 29.7552 123.031 29.9323 124.312 30.0156L124.609 30.0312V31H115.734V30.0312L116.031 30.0156C117.292 29.9323 118.036 29.7552 118.266 29.4844C118.505 29.2031 118.625 28.3594 118.625 26.9531V18.0781C118.625 16.6719 118.505 15.8333 118.266 15.5625C118.036 15.2917 117.292 15.1094 116.031 15.0156L115.734 15V14.0312H121.703ZM118.625 10.9531V7.875H121.703V10.9531H118.625ZM136.266 30.9062C135.484 31.2292 134.74 31.3906 134.031 31.3906C132.229 31.3906 130.911 30.9375 130.078 30.0312C129.255 29.125 128.844 27.6823 128.844 25.7031V15.2969H126.344V14.0312H128.844V10.9531L131.938 10.1875V14.0312H136.656V15.2969H131.938V26.1094C131.938 27.5677 132.13 28.6042 132.516 29.2188C132.901 29.8333 133.557 30.1406 134.484 30.1406C134.974 30.1406 135.568 29.9792 136.266 29.6562V30.9062ZM149.562 28.6719C147.729 30.4844 145.917 31.3906 144.125 31.3906C142.688 31.3906 141.49 30.9375 140.531 30.0312C139.573 29.1146 139.094 27.9688 139.094 26.5938C139.094 24.9896 139.719 23.6875 140.969 22.6875C142.396 21.5417 144.812 20.9688 148.219 20.9688H148.859V18.8594C148.859 16.1823 147.844 14.8438 145.812 14.8438C144.865 14.8438 144.026 15.1354 143.297 15.7188C142.87 16.0729 142.599 16.7969 142.484 17.8906L142.469 18.1875H140.375V15.0781C142.542 14.1302 144.552 13.6562 146.406 13.6562C150.094 13.6562 151.938 15.349 151.938 18.7344V26.2969C151.938 27.651 152.052 28.6042 152.281 29.1562C152.521 29.7083 152.932 29.9844 153.516 29.9844C153.724 29.9844 154 29.9375 154.344 29.8438L154.438 31C153.698 31.2604 153.036 31.3906 152.453 31.3906C150.932 31.3906 149.969 30.4844 149.562 28.6719ZM148.859 28.3281V21.9375H148.141C146.328 21.9375 144.911 22.3125 143.891 23.0625C142.87 23.8125 142.359 24.8438 142.359 26.1562C142.359 27.1354 142.677 27.9479 143.312 28.5938C143.948 29.2396 144.74 29.5625 145.688 29.5625C146.583 29.5625 147.641 29.151 148.859 28.3281ZM161.453 6.32812V26.9531C161.453 28.3698 161.568 29.2135 161.797 29.4844C162.026 29.7552 162.781 29.9323 164.062 30.0156L164.359 30.0312V31H155.484V30.0312L155.781 30.0156C157.042 29.9323 157.786 29.7552 158.016 29.4844C158.255 29.2031 158.375 28.3594 158.375 26.9531V10.375C158.375 8.96875 158.255 8.13021 158.016 7.85938C157.786 7.57812 157.042 7.39583 155.781 7.3125L155.484 7.29688V6.32812H161.453Z" fill="#A5A5A5"/>
</g>
<defs>
<clipPath id="clip0_200_147">
<rect width="165" height="38" fill="white"/>
</clipPath>
</defs>
</svg>
